<?xml version="1.0" standalone="no"?>
<!DOCTYPE svg PUBLIC "-//W3C//DTD SVG 20010904//EN"
 "http://www.w3.org/TR/2001/REC-SVG-20010904/DTD/svg10.dtd">
<svg version="1.0" xmlns="http://www.w3.org/2000/svg"
 width="3751.000000pt" height="2737.000000pt" viewBox="0 0 3751.000000 2737.000000"
 preserveAspectRatio="xMidYMid meet">

<g transform="translate(0.000000,2737.000000) scale(0.100000,-0.100000)"
fill="#000000" stroke="none">
<path d="M25920 26170 c-30 -4 -88 -5 -128 -2 -49 3 -77 0 -87 -8 -9 -7 -18
-10 -21 -7 -3 3 -22 -6 -41 -19 -19 -13 -39 -21 -44 -18 -5 2 -11 -7 -15 -21
-7 -28 15 -65 91 -160 22 -27 45 -55 50 -63 6 -7 34 -39 64 -70 30 -31 73 -82
95 -112 23 -31 62 -76 86 -101 25 -25 57 -70 73 -100 15 -30 56 -94 92 -144
36 -49 86 -121 112 -160 26 -38 51 -71 55 -73 5 -2 8 -9 8 -15 0 -11 35 -54
168 -207 125 -143 220 -217 369 -290 70 -34 153 -40 187 -15 11 8 27 15 36 15
55 0 182 116 253 232 10 16 20 50 23 76 3 26 7 55 10 64 3 10 0 28 -7 40 -7
13 -16 57 -20 98 -4 41 -11 89 -14 105 -11 48 -9 78 6 113 12 28 12 34 0 41
-11 7 -12 22 -8 63 5 43 3 60 -13 85 -10 17 -25 51 -33 75 -12 35 -22 47 -58
65 -41 20 -45 21 -57 5 -11 -15 -14 -15 -22 -2 -5 8 -10 18 -10 23 0 4 -7 7
-15 7 -12 0 -13 -4 -6 -19 8 -14 7 -22 -4 -31 -8 -7 -15 -18 -15 -24 0 -11
-39 -31 -92 -49 -10 -4 -15 -12 -12 -21 4 -11 -4 -13 -41 -11 -36 3 -58 13
-102 46 -89 67 -176 162 -207 226 -21 42 -55 83 -127 151 -121 115 -133 125
-204 162 -36 19 -72 30 -99 30 -22 0 -59 7 -81 15 -42 15 -104 17 -195 5z"/>
<path d="M29438 25560 c-2 -6 -112 -10 -279 -11 l-277 -1 -11 -25 c-9 -19 -8
-32 3 -56 7 -18 19 -47 26 -64 7 -18 17 -33 22 -33 5 0 12 -8 15 -17 9 -23 99
-110 193 -188 40 -33 78 -65 85 -72 38 -37 141 -123 147 -123 4 0 18 -11 32
-23 25 -23 204 -145 301 -204 89 -55 328 -172 470 -230 155 -63 270 -84 475
-84 141 0 173 3 219 20 76 29 79 33 53 86 -12 25 -22 61 -22 80 0 29 -4 35
-21 35 -19 0 -19 1 -4 16 13 13 15 28 10 63 -10 83 -7 145 13 234 10 48 16 87
12 87 -4 0 -3 20 3 45 9 37 8 48 -6 63 -10 10 -17 24 -17 31 0 18 -69 83 -80
76 -6 -3 -10 1 -10 9 0 9 -4 16 -10 16 -5 0 -7 7 -4 14 7 17 -25 65 -43 66 -7
0 -13 9 -13 20 0 11 -4 20 -9 20 -5 0 -14 14 -20 31 -9 26 -13 29 -31 19 -14
-7 -20 -8 -20 0 0 7 -6 8 -19 0 -24 -12 -58 -13 -63 -1 -2 5 -27 5 -61 -1 -42
-7 -62 -7 -70 1 -6 6 -30 11 -52 11 -26 0 -65 12 -103 30 -34 17 -73 30 -87
30 -14 0 -25 5 -25 10 0 8 -86 11 -262 11 -298 -1 -298 -1 -298 11 0 11 -158
10 -162 -2z"/>
<path d="M27301 23821 c-7 -5 -22 -6 -32 -4 -24 7 -94 -28 -144 -72 -22 -19
-43 -35 -47 -35 -4 0 -10 -11 -14 -25 -3 -14 -15 -30 -25 -36 -11 -5 -19 -18
-19 -29 0 -10 -8 -23 -17 -29 -16 -8 -18 -32 -21 -210 -3 -144 1 -236 12 -326
10 -73 14 -147 10 -175 -5 -34 -3 -55 6 -65 9 -11 10 -19 3 -26 -8 -8 -13 -7
-18 1 -11 18 -34 -20 -35 -58 0 -20 -4 -31 -10 -27 -5 3 -10 15 -10 26 0 10
-4 19 -10 19 -5 0 -10 -9 -10 -20 0 -11 -12 -27 -26 -37 -36 -23 -61 -88 -69
-175 -7 -89 -14 -120 -26 -113 -4 3 -8 -7 -8 -22 0 -15 -7 -66 -16 -113 -18
-100 -14 -234 11 -306 9 -26 30 -63 48 -81 29 -31 38 -35 92 -36 89 -2 114 7
114 43 0 16 5 32 10 35 6 3 10 19 10 35 0 15 4 30 10 32 5 2 11 12 13 23 2 11
9 33 15 48 7 16 12 30 12 33 0 11 66 96 72 94 2 -1 17 4 33 10 41 16 128 41
140 40 93 -5 265 -51 286 -76 6 -8 18 -14 26 -14 20 0 133 -90 170 -135 81
-98 77 -87 76 -214 0 -90 -5 -132 -22 -188 -20 -67 -21 -75 -6 -102 8 -17 15
-35 15 -42 0 -6 26 -45 58 -87 31 -42 64 -88 72 -102 47 -84 145 -200 169
-200 11 0 61 -54 61 -67 0 -7 7 -18 15 -27 26 -26 79 -100 100 -138 11 -21 23
-38 26 -38 4 0 10 -16 13 -35 4 -20 15 -55 26 -79 10 -24 21 -79 25 -122 5
-53 14 -87 26 -103 11 -13 19 -32 19 -42 0 -11 7 -19 15 -19 8 0 17 -11 21
-25 3 -14 15 -30 25 -36 11 -5 19 -20 19 -32 0 -41 23 -78 53 -84 15 -3 32
-13 37 -22 5 -10 33 -22 72 -29 34 -8 70 -17 78 -23 8 -5 32 -18 53 -29 20
-11 37 -27 37 -35 0 -8 9 -20 20 -27 11 -7 20 -21 20 -31 0 -10 6 -20 14 -23
8 -3 20 -20 27 -37 7 -18 21 -40 31 -50 12 -12 17 -26 13 -38 -4 -12 -1 -21 9
-25 8 -3 12 -12 9 -20 -3 -8 2 -25 11 -39 9 -14 14 -30 11 -35 -3 -5 2 -54 11
-110 11 -62 20 -96 25 -88 7 10 9 10 10 -2 1 -8 4 -26 6 -40 2 -14 6 -36 7
-50 7 -53 37 -136 60 -162 14 -18 33 -28 50 -28 14 0 26 -3 26 -7 0 -5 14 -16
30 -25 17 -9 30 -24 30 -33 0 -8 7 -15 15 -15 8 0 15 -9 15 -19 0 -10 7 -21
15 -25 8 -3 15 -1 15 5 0 6 6 9 13 6 6 -2 12 -17 12 -33 0 -17 5 -28 12 -27
13 3 47 -41 57 -75 12 -35 58 -102 72 -102 7 0 16 -9 19 -20 4 -11 11 -17 17
-14 6 4 8 -1 4 -13 -7 -23 27 -62 39 -43 4 7 15 2 30 -15 13 -14 31 -25 39
-25 8 0 18 -9 21 -20 3 -11 13 -20 20 -20 8 0 31 -12 52 -26 21 -14 50 -28 66
-31 18 -4 27 -12 27 -24 0 -15 5 -18 24 -13 14 3 29 0 39 -10 8 -9 25 -16 35
-16 35 0 82 -33 82 -57 0 -19 5 -22 39 -21 23 0 51 -8 68 -19 15 -10 40 -25
56 -33 15 -7 27 -17 27 -22 0 -4 9 -8 20 -8 12 0 31 -10 44 -22 40 -39 59 -52
104 -72 24 -11 59 -35 77 -53 18 -18 40 -33 47 -33 8 0 23 -9 32 -19 10 -11
30 -21 45 -23 15 -2 25 -9 23 -16 -1 -7 9 -17 23 -22 14 -5 25 -13 25 -18 0
-5 26 -15 58 -22 150 -34 221 -54 268 -76 28 -13 57 -24 65 -24 20 0 99 -52
99 -65 0 -5 17 -11 37 -12 21 -1 46 -6 58 -12 25 -12 58 -24 67 -25 4 -1 13
-7 20 -13 6 -7 23 -13 36 -13 41 0 113 -22 119 -36 3 -8 13 -14 22 -14 10 0
21 -3 25 -7 3 -4 14 -8 24 -10 9 -1 40 -6 68 -11 28 -4 59 -16 68 -25 10 -9
31 -17 47 -17 16 0 29 -4 29 -9 0 -5 16 -8 36 -6 23 1 37 -2 41 -11 3 -8 12
-14 20 -14 8 0 29 -10 46 -22 18 -13 38 -22 44 -20 7 2 13 -4 13 -13 0 -9 16
-25 35 -36 19 -12 38 -32 41 -45 3 -13 12 -24 20 -24 31 0 144 -69 144 -87 0
-7 8 -13 19 -13 11 0 22 -10 26 -22 3 -13 8 -18 11 -12 4 11 101 -30 114 -48
3 -4 18 -11 33 -17 15 -6 27 -17 27 -26 0 -8 11 -17 25 -21 14 -3 25 -11 25
-16 0 -5 6 -8 12 -6 7 3 21 -6 31 -19 10 -13 25 -23 33 -23 9 0 22 -7 30 -15
9 -8 24 -15 34 -15 10 0 22 -5 25 -10 4 -6 10 -8 15 -5 5 3 11 1 15 -5 3 -5
14 -10 24 -10 10 0 24 -6 30 -14 6 -7 30 -17 53 -20 33 -5 39 -9 28 -17 -11
-8 -9 -9 8 -4 15 4 30 1 40 -8 9 -8 37 -15 60 -16 24 0 49 -4 55 -8 7 -4 21
-6 31 -4 20 3 105 -17 121 -30 6 -4 39 -13 75 -19 36 -7 72 -19 80 -26 8 -7
18 -13 22 -14 4 0 13 -2 20 -4 64 -18 98 -26 114 -26 11 0 24 -10 29 -22 6
-13 19 -24 30 -26 11 -2 25 -9 30 -16 6 -7 14 -13 19 -13 15 1 96 -57 96 -69
0 -14 44 -34 74 -34 20 0 65 -36 58 -46 -1 -3 2 -12 8 -22 7 -10 13 -13 16 -6
6 14 64 5 64 -10 0 -6 10 -20 23 -31 19 -17 20 -20 5 -23 -10 -2 -15 -9 -11
-18 5 -13 8 -13 23 1 17 15 19 15 24 -3 4 -11 16 -22 27 -25 11 -3 23 -14 26
-25 3 -11 18 -26 33 -32 16 -7 43 -23 61 -36 18 -13 39 -24 47 -24 8 0 23 -9
33 -21 10 -11 22 -18 27 -15 14 9 73 -14 105 -41 16 -12 35 -23 43 -23 8 0 14
-3 14 -8 0 -9 93 -52 114 -52 8 0 20 -9 26 -20 6 -11 15 -18 20 -15 5 3 11 1
15 -5 3 -5 15 -10 26 -10 11 0 22 -7 25 -15 4 -10 20 -15 48 -15 44 -1 79 -20
74 -41 -2 -7 16 -20 39 -29 24 -8 48 -21 55 -28 7 -7 18 -12 25 -12 7 0 13 -7
13 -15 0 -11 12 -15 44 -15 32 0 52 -7 73 -23 15 -13 41 -27 57 -31 16 -4 30
-15 33 -26 4 -15 14 -20 38 -20 20 0 35 -6 39 -15 3 -8 12 -15 19 -15 8 0 20
-7 27 -15 7 -8 19 -15 27 -15 16 0 43 -24 43 -38 0 -5 11 -14 25 -20 14 -6 25
-18 25 -27 0 -18 26 -20 33 -2 4 7 8 3 12 -10 4 -13 12 -23 19 -23 6 0 38 -14
71 -30 33 -16 70 -30 82 -30 12 0 24 -4 27 -9 3 -5 31 -23 61 -40 30 -17 55
-35 55 -41 0 -5 21 -20 48 -33 26 -14 46 -29 45 -35 -1 -5 9 -13 22 -16 14 -4
25 -13 25 -22 0 -8 5 -12 11 -9 6 4 21 -3 34 -15 12 -12 29 -22 37 -24 8 -1
27 -9 41 -19 15 -9 31 -17 37 -17 5 0 15 -9 22 -20 7 -11 20 -20 29 -20 9 0
28 -11 43 -25 15 -14 33 -25 40 -25 7 0 22 -9 34 -20 12 -11 35 -23 52 -26 16
-4 30 -10 30 -13 0 -10 73 -45 88 -42 6 1 12 -3 12 -8 0 -5 10 -13 23 -17 12
-3 41 -19 65 -35 24 -16 47 -29 52 -29 20 0 140 -60 140 -70 0 -5 7 -10 15
-10 8 0 32 -18 54 -40 25 -26 48 -40 64 -40 19 0 26 -6 31 -31 3 -17 10 -28
15 -25 12 8 80 -26 81 -39 0 -15 29 -53 73 -95 23 -22 37 -45 37 -61 0 -43 50
-129 75 -129 12 0 57 -35 107 -82 10 -10 25 -18 34 -18 18 0 154 -87 154 -99
0 -3 21 -13 46 -20 25 -8 58 -25 72 -38 l27 -25 3 1198 c2 1164 2 1197 -17
1210 -10 8 -22 25 -25 39 -4 14 -10 25 -15 25 -12 0 -87 80 -84 90 1 4 -5 7
-15 6 -9 0 -17 6 -17 15 0 9 -15 28 -33 44 -18 15 -39 41 -46 59 -8 17 -26 43
-40 58 -14 15 -26 32 -26 38 0 5 -12 20 -26 32 -14 13 -35 39 -47 58 -12 19
-43 58 -69 85 -26 28 -48 53 -48 58 0 4 -29 38 -64 75 -108 113 -116 123 -116
137 0 7 -16 23 -35 35 -19 12 -35 26 -35 30 0 5 -13 25 -30 43 -16 19 -30 39
-30 45 0 5 -9 12 -20 15 -12 3 -20 14 -20 27 0 11 -4 19 -8 16 -5 -3 -22 11
-37 30 -16 20 -34 33 -42 30 -7 -3 -13 1 -13 10 0 20 -22 42 -38 36 -6 -2 -12
2 -12 10 0 16 -40 64 -122 149 -32 33 -58 63 -58 66 0 9 -53 86 -64 95 -6 4
-13 5 -16 3 -4 -2 -14 11 -23 30 -11 23 -24 35 -37 35 -11 0 -19 3 -19 8 4 24
-5 39 -31 54 -17 9 -40 33 -51 53 -12 19 -27 35 -34 35 -7 0 -18 13 -25 30 -7
16 -21 32 -31 35 -10 4 -19 13 -19 21 0 8 -7 14 -15 14 -8 0 -15 4 -15 10 0 5
-13 16 -30 25 -16 9 -30 22 -30 30 0 8 -9 15 -20 15 -13 0 -20 7 -20 20 0 11
-4 20 -8 20 -5 0 -37 27 -72 60 -35 33 -67 60 -72 60 -17 0 -87 79 -75 84 7 3
2 3 -11 0 -13 -3 -28 1 -38 10 -8 9 -22 16 -30 16 -8 0 -14 6 -14 14 0 9 -16
17 -41 21 -28 5 -37 10 -28 16 14 8 14 8 -36 24 -8 2 -14 10 -13 17 2 7 -16
17 -42 24 -25 6 -44 14 -42 17 7 20 -3 30 -48 49 -27 11 -52 29 -55 39 -4 11
-10 17 -14 15 -14 -9 -81 17 -81 31 0 9 -14 13 -42 14 -33 1 -37 3 -19 8 19 5
21 8 10 17 -8 6 -25 14 -39 17 -88 21 -150 43 -150 54 0 9 -18 13 -59 13 -33
0 -63 5 -66 10 -3 6 -1 10 6 10 9 0 10 3 3 10 -6 6 -32 12 -59 14 -27 2 -54
10 -59 18 -16 21 -80 42 -84 28 -2 -6 -11 -2 -18 9 -8 11 -21 18 -28 15 -7 -3
-16 2 -19 10 -3 8 -14 13 -24 12 -10 -2 -12 -1 -5 1 25 9 11 19 -58 43 -38 13
-70 28 -70 33 0 5 -7 6 -17 3 -9 -4 -25 1 -37 12 -12 11 -38 25 -59 32 -21 7
-41 18 -43 25 -3 7 -26 20 -52 29 -26 10 -55 21 -64 27 -10 5 -25 9 -33 9 -9
0 -18 6 -21 14 -3 7 -24 19 -47 26 -23 8 -46 17 -52 21 -5 4 -37 15 -70 24
-33 10 -64 21 -70 25 -5 4 -28 13 -50 20 -22 7 -45 17 -51 22 -7 5 -40 15 -75
23 -77 17 -149 38 -207 59 -23 8 -48 13 -56 10 -7 -3 -19 2 -26 11 -7 8 -24
15 -39 15 -37 0 -141 34 -151 50 -4 7 -13 10 -19 6 -6 -4 -21 -1 -33 6 -13 7
-27 11 -32 9 -18 -5 -177 40 -210 60 -18 11 -40 17 -49 13 -9 -3 -37 4 -63 15
-26 12 -59 23 -73 26 -60 11 -81 17 -81 25 0 4 -22 10 -48 14 -27 3 -57 13
-68 21 -10 8 -32 15 -47 15 -16 0 -38 5 -50 12 -12 6 -32 13 -45 14 -13 2 -30
8 -39 15 -8 7 -20 14 -27 15 -75 15 -208 66 -228 87 -9 11 -21 16 -27 13 -5
-4 -25 3 -43 14 -18 11 -40 23 -48 26 -55 23 -181 88 -186 96 -3 5 -12 7 -18
5 -7 -3 -32 8 -55 23 -23 16 -63 37 -89 47 -25 9 -54 25 -63 34 -9 9 -39 24
-67 34 -29 11 -52 25 -52 33 0 7 -6 12 -12 9 -15 -5 -101 38 -118 58 -6 8 -24
16 -39 20 -15 3 -39 17 -54 30 -14 14 -31 25 -36 25 -6 0 -34 18 -63 40 -29
22 -59 40 -65 40 -7 0 -13 5 -13 10 0 6 -5 10 -12 10 -6 0 -38 20 -69 45 -32
25 -62 45 -67 45 -6 0 -20 12 -31 26 -11 15 -34 34 -51 43 -53 29 -310 270
-310 291 0 6 -4 9 -9 7 -5 -1 -28 19 -52 44 -24 25 -56 53 -70 62 -14 10 -32
29 -40 45 -15 30 -66 82 -80 82 -4 0 -14 10 -20 23 -7 12 -28 37 -48 55 -20
18 -53 48 -74 67 -21 19 -41 35 -45 35 -4 0 -32 23 -62 51 -30 28 -65 57 -77
66 -13 8 -23 22 -23 29 0 8 -5 14 -11 14 -13 0 -158 125 -278 240 -48 47 -103
96 -121 110 -18 14 -56 46 -84 72 -28 26 -57 48 -63 48 -7 0 -13 4 -13 8 0 5
-11 14 -25 20 -14 6 -25 18 -25 27 0 8 -6 15 -14 15 -8 0 -34 18 -58 40 -23
22 -46 40 -50 40 -4 0 -31 23 -60 51 -29 27 -77 69 -107 92 -30 23 -67 54 -83
69 -17 16 -35 28 -42 28 -7 0 -30 18 -51 40 -21 22 -43 40 -49 40 -5 0 -16 7
-25 15 -33 32 -206 155 -218 155 -7 0 -13 4 -13 9 0 5 -15 18 -32 30 -142 90
-193 125 -196 133 -2 4 -11 8 -19 8 -9 0 -32 12 -52 28 -20 15 -56 38 -80 51
-24 13 -53 32 -64 42 -12 10 -26 19 -33 19 -7 0 -24 10 -36 23 -28 26 -85 67
-94 67 -3 0 -15 11 -26 25 -11 14 -28 25 -39 25 -10 0 -34 15 -53 33 -40 38
-64 55 -88 63 -10 4 -18 10 -18 14 0 4 -18 12 -40 19 -22 6 -40 16 -40 21 0 6
-8 10 -19 10 -10 0 -24 7 -31 15 -7 8 -28 15 -46 15 -19 0 -34 5 -34 10 0 6
-4 10 -10 10 -5 0 -19 9 -30 20 -22 22 -29 24 -49 11z"/>
<path d="M7978 22333 c7 -3 16 -2 19 1 4 3 -2 6 -13 5 -11 0 -14 -3 -6 -6z"/>
<path d="M8028 22333 c7 -3 16 -2 19 1 4 3 -2 6 -13 5 -11 0 -14 -3 -6 -6z"/>
<path d="M7920 22294 c-30 -8 -75 -20 -100 -28 -25 -7 -65 -19 -90 -26 -25 -7
-67 -24 -95 -38 -27 -14 -64 -33 -82 -42 -46 -22 -137 -113 -163 -162 -12 -24
-31 -49 -41 -56 -11 -7 -25 -28 -33 -45 -7 -18 -22 -41 -33 -52 -32 -34 -71
-120 -66 -147 3 -15 -2 -29 -11 -37 -9 -8 -16 -26 -16 -41 0 -28 -41 -67 -59
-56 -5 3 -15 -1 -22 -10 -10 -13 -10 -20 5 -45 9 -16 14 -34 10 -40 -11 -19
-98 -5 -124 19 -13 12 -32 24 -42 28 -10 3 -18 11 -18 18 0 16 32 46 48 46 7
0 12 7 12 15 0 8 -4 15 -9 15 -5 0 -11 10 -13 23 -3 19 -8 22 -37 19 -38 -3
-53 -12 -33 -19 20 -8 13 -26 -8 -20 -11 3 -23 0 -27 -5 -3 -7 -1 -8 5 -4 7 4
12 5 12 2 0 -3 -16 -13 -36 -22 -20 -9 -38 -23 -40 -31 -14 -46 -14 -46 -29
-33 -12 10 -18 10 -30 0 -8 -7 -15 -17 -15 -22 0 -5 -7 -16 -15 -24 -8 -9 -15
-28 -15 -43 0 -15 -9 -36 -20 -46 -11 -10 -20 -23 -20 -29 0 -5 -12 -22 -26
-37 -14 -15 -27 -40 -28 -56 -3 -28 -30 -127 -47 -171 -5 -13 -7 -28 -4 -33 4
-5 2 -9 -2 -9 -25 0 -49 -280 -33 -390 6 -41 17 -125 25 -186 13 -105 25 -180
45 -284 5 -25 12 -76 15 -115 4 -38 12 -73 18 -77 8 -5 7 -14 -3 -33 -12 -23
-12 -28 0 -36 13 -8 13 -10 1 -18 -17 -11 -11 -93 19 -246 23 -118 25 -126 63
-340 29 -164 28 -157 61 -395 14 -102 26 -203 26 -225 1 -32 3 -36 10 -20 5
11 9 35 9 53 1 31 23 62 52 76 11 5 11 7 2 12 -17 7 -17 30 0 37 17 7 47 -16
47 -37 0 -68 108 102 123 194 4 22 4 21 6 -5 3 -80 -58 -233 -138 -342 -46
-64 -51 -76 -51 -124 0 -30 4 -60 8 -67 12 -17 -2 -112 -17 -122 -9 -5 -3 -14
21 -31 18 -13 36 -28 40 -33 12 -18 -1 -19 -26 -2 -14 9 -36 16 -48 16 -21 0
-20 -2 8 -19 17 -11 36 -34 43 -52 13 -37 4 -54 -13 -25 -21 35 -48 66 -56 66
-5 0 -11 -9 -15 -19 -4 -12 -12 -18 -21 -14 -11 4 -14 -5 -14 -41 0 -32 5 -48
15 -52 11 -4 15 -21 15 -55 0 -27 4 -49 9 -49 6 0 13 -21 17 -47 3 -27 9 -52
12 -58 3 -5 5 -24 3 -42 -1 -19 2 -33 8 -33 6 0 11 -16 11 -35 0 -19 4 -35 9
-35 5 0 12 -12 14 -27 3 -16 13 -71 22 -123 9 -52 21 -103 26 -113 10 -18 14
-38 39 -162 7 -33 17 -69 23 -80 6 -11 12 -47 13 -80 2 -33 8 -59 13 -58 5 1
12 -17 16 -40 4 -23 13 -65 22 -94 8 -29 14 -71 15 -93 0 -31 6 -45 26 -60 13
-11 19 -20 12 -20 -8 0 -10 -11 -7 -37 3 -21 11 -83 17 -138 6 -55 15 -104 20
-109 12 -13 24 41 13 57 -12 15 -38 176 -30 184 11 10 46 -41 37 -52 -5 -6 -1
-39 8 -75 15 -59 19 -65 40 -62 17 3 33 -6 53 -29 16 -18 29 -36 29 -40 0 -4
3 -16 6 -26 5 -17 5 -17 -6 0 -7 11 -18 16 -30 12 -10 -3 -21 -1 -25 5 -3 5
-22 10 -42 10 l-35 0 5 -52 c4 -55 18 -184 43 -399 8 -69 14 -146 14 -170 0
-24 6 -89 14 -144 22 -149 50 -440 50 -525 l1 -75 25 23 c32 30 38 12 11 -34
-25 -41 -25 -44 -8 -44 7 0 18 9 25 20 17 28 36 26 21 -2 -9 -17 -9 -23 0 -26
7 -2 26 -17 44 -33 24 -22 31 -36 29 -58 -3 -23 3 -34 22 -46 29 -19 34 -53
14 -86 -11 -17 -10 -22 5 -30 12 -7 17 -23 17 -57 0 -26 5 -65 11 -87 5 -22
14 -74 19 -115 5 -41 11 -88 14 -105 3 -16 8 -50 11 -75 2 -25 7 -56 9 -70 11
-58 28 -236 37 -385 12 -211 17 -272 24 -320 4 -22 9 -60 11 -84 3 -25 14
-115 25 -200 29 -230 35 -336 19 -366 -12 -22 -11 -32 8 -78 12 -28 22 -68 24
-87 1 -19 7 -46 13 -60 8 -16 12 -93 13 -220 1 -135 6 -218 16 -268 20 -92 20
-130 1 -176 l-15 -36 51 0 c30 0 77 10 117 26 37 14 83 31 102 39 46 17 167
66 260 104 204 83 292 115 389 143 58 16 151 44 206 62 168 55 237 76 305 90
36 8 81 19 100 25 19 7 58 19 85 28 28 8 84 28 125 43 86 33 241 81 350 109
105 27 136 40 212 88 37 24 69 43 72 43 3 0 48 19 98 43 51 24 129 58 173 76
44 18 87 37 95 42 48 29 99 49 130 49 19 1 58 14 85 30 86 50 150 73 254 91
175 31 183 31 320 18 132 -13 196 -15 291 -9 47 3 196 -38 255 -70 17 -9 53
-24 80 -34 28 -11 92 -38 142 -62 160 -74 260 -89 402 -59 136 28 365 149 491
258 54 47 266 175 322 194 59 20 74 11 83 -50 14 -92 10 -307 -7 -392 -41
-205 -104 -375 -182 -492 -19 -29 -37 -61 -40 -71 -4 -10 -14 -27 -24 -38 -9
-10 -28 -39 -41 -64 -13 -25 -32 -54 -41 -65 -9 -11 -34 -48 -54 -82 -21 -35
-42 -63 -47 -63 -5 0 -9 -7 -9 -15 0 -17 -14 -36 -92 -120 -77 -82 -98 -107
-98 -114 0 -3 -15 -23 -33 -43 -17 -20 -48 -57 -67 -81 -19 -24 -62 -65 -96
-91 -55 -42 -107 -95 -181 -186 -15 -19 -47 -55 -70 -80 -24 -25 -43 -48 -43
-52 0 -4 -12 -14 -28 -22 -15 -8 -43 -31 -62 -51 -19 -20 -48 -43 -65 -51 -34
-16 -60 -32 -94 -56 -13 -10 -32 -18 -42 -18 -9 0 -24 -6 -31 -12 -28 -27
-117 -67 -196 -88 -45 -12 -82 -25 -82 -29 0 -5 -17 -14 -38 -20 -22 -7 -47
-24 -57 -37 -10 -13 -23 -24 -30 -24 -7 0 -23 -10 -37 -22 -46 -42 -137 -88
-258 -129 -36 -12 -70 -26 -76 -30 -11 -9 -24 -11 -154 -25 -36 -3 -67 -10
-70 -14 -3 -4 -25 -10 -50 -14 -48 -7 -93 -21 -230 -69 -47 -16 -97 -29 -112
-28 -17 1 -35 -7 -45 -19 -10 -11 -28 -20 -40 -20 -13 0 -28 -9 -35 -20 -7
-11 -23 -20 -35 -20 -12 0 -24 -4 -27 -9 -4 -5 -22 -8 -41 -7 -20 2 -38 -1
-41 -5 -3 -5 -13 -9 -23 -9 -10 0 -34 -13 -52 -30 -19 -16 -42 -32 -51 -36
-10 -3 -18 -12 -18 -20 0 -8 -4 -14 -9 -14 -5 0 -41 -32 -80 -70 -39 -39 -71
-65 -71 -58 0 6 -9 2 -20 -9 -10 -12 -28 -24 -40 -28 -11 -3 -20 -10 -20 -15
0 -9 -71 -55 -82 -52 -4 1 -17 -11 -28 -26 -12 -15 -26 -28 -31 -28 -5 -1 -15
-2 -23 -3 -7 0 -16 -10 -19 -21 -3 -11 -12 -20 -21 -20 -9 0 -16 -5 -16 -11 0
-7 -10 -22 -22 -35 -51 -52 -58 -60 -82 -81 -26 -23 -206 -113 -227 -113 -7 0
-28 -12 -48 -27 -20 -15 -37 -26 -38 -23 -2 7 -53 -50 -53 -59 0 -15 -104
-111 -137 -126 -18 -9 -33 -21 -33 -27 0 -6 -9 -18 -20 -28 -30 -26 -41 -67
-39 -149 2 -90 -13 -161 -47 -218 -27 -47 -90 -103 -116 -103 -9 0 -21 -6 -25
-12 -4 -7 -12 -13 -18 -13 -31 0 -125 -41 -125 -55 0 -25 97 -206 140 -260 73
-92 103 -224 89 -386 -6 -68 -71 -299 -90 -319 -5 -5 -9 -15 -9 -23 0 -8 -21
-55 -46 -105 -43 -86 -94 -221 -124 -327 -17 -64 -49 -130 -62 -130 -5 0 -8
-9 -8 -19 0 -10 -7 -21 -15 -25 -8 -3 -15 -12 -15 -21 0 -8 -16 -44 -35 -81
-19 -36 -35 -71 -35 -78 0 -15 -41 -119 -50 -126 -3 -3 -18 -31 -33 -63 -15
-31 -30 -57 -34 -57 -5 0 -19 -17 -33 -38 -14 -20 -33 -46 -42 -56 -10 -11
-18 -23 -18 -28 0 -4 -7 -8 -15 -8 -8 0 -16 -6 -16 -12 -1 -7 -2 -17 -4 -23
-1 -5 -3 -16 -3 -22 -1 -7 -9 -13 -17 -13 -16 0 -38 -34 -27 -44 3 -4 0 -5 -8
-1 -10 3 -24 -8 -40 -35 -14 -22 -28 -40 -32 -40 -5 0 -8 -6 -8 -13 0 -7 -9
-18 -20 -25 -11 -7 -20 -17 -20 -22 0 -6 -16 -24 -35 -41 -19 -17 -35 -35 -35
-40 0 -4 -19 -28 -42 -53 -82 -87 -108 -124 -108 -151 0 -8 -9 -15 -20 -15
-15 0 -20 -7 -20 -26 0 -18 -4 -24 -14 -21 -8 3 -23 -10 -37 -34 -15 -24 -32
-39 -45 -39 -11 0 -29 -9 -39 -20 -10 -11 -26 -20 -37 -20 -12 0 -18 -7 -18
-22 0 -32 -14 -50 -32 -43 -10 4 -18 -4 -25 -27 -6 -18 -11 -25 -12 -15 -1 21
-2 21 -46 0 -19 -9 -35 -23 -35 -31 0 -9 -7 -11 -21 -7 -15 5 -25 1 -35 -13
-7 -11 -27 -22 -43 -25 -23 -5 -34 -16 -50 -52 -13 -30 -26 -45 -38 -45 -14 0
-21 -13 -31 -54 -7 -29 -10 -60 -7 -68 3 -8 -8 -30 -24 -49 -17 -19 -31 -37
-31 -41 0 -5 -7 -8 -15 -8 -8 0 -15 -6 -15 -12 0 -10 -2 -10 -9 0 -5 9 -10 0
-15 -27 -6 -42 -26 -57 -26 -21 0 31 -16 24 -28 -12 -5 -18 -10 -25 -11 -15
-1 22 -10 21 -40 -4 -21 -17 -22 -22 -10 -29 21 -14 0 -43 -39 -55 -31 -9 -47
-45 -20 -45 9 0 9 -3 0 -12 -7 -7 -12 -20 -12 -30 0 -10 -9 -23 -20 -30 -11
-7 -20 -18 -20 -25 0 -7 -9 -13 -20 -13 -11 0 -19 -5 -17 -12 1 -6 -7 -14 -18
-16 -11 -2 -32 -17 -48 -33 -15 -16 -34 -29 -42 -29 -8 0 -15 -6 -15 -13 0 -8
-18 -20 -40 -27 -32 -11 -40 -18 -40 -37 0 -36 -37 -62 -87 -63 -55 0 -93 -18
-94 -44 0 -20 -1 -20 -11 1 -13 27 -35 30 -41 6 -4 -17 -5 -17 -6 0 -1 10 -9
17 -21 17 -17 0 -20 -7 -20 -38 0 -26 -7 -45 -20 -57 -13 -11 -20 -32 -21 -54
0 -20 -3 -30 -6 -23 -7 18 -19 15 -47 -13 -19 -18 -36 -25 -66 -25 -29 0 -40
-4 -40 -15 0 -12 -17 -15 -90 -15 -96 0 -90 3 -163 -66 -35 -33 -67 -44 -67
-24 0 6 7 10 15 10 22 0 65 45 65 67 0 16 -8 18 -65 15 l-65 -4 0 -38 c0 -22
5 -40 13 -43 8 -3 7 -10 -7 -26 -28 -31 -36 -26 -36 21 0 33 -3 39 -12 30 -7
-7 -11 -32 -9 -57 1 -27 -2 -45 -8 -45 -6 0 -11 -18 -11 -40 0 -33 3 -40 20
-40 11 0 20 5 20 10 0 6 7 10 16 10 25 0 12 -33 -19 -48 -15 -7 -33 -22 -40
-33 -6 -10 -16 -19 -21 -19 -5 0 -20 -10 -33 -22 -22 -21 -23 -21 -44 -2 -15
14 -19 26 -15 49 2 16 2 24 -1 18 -7 -19 -83 -17 -83 2 0 11 12 15 51 15 31 0
48 4 44 10 -4 6 7 10 25 10 18 0 29 -4 25 -10 -3 -6 -1 -10 4 -10 6 0 11 7 11
15 0 11 -11 15 -40 15 -22 0 -40 5 -40 10 0 6 -18 10 -40 10 -36 0 -40 3 -40
24 0 21 -5 25 -42 28 -24 3 -49 6 -57 9 -11 3 -14 -6 -12 -43 l3 -48 -49 0
-48 0 23 -18 23 -18 -26 -12 c-14 -7 -37 -12 -50 -12 -13 0 -26 -4 -30 -9 -3
-6 18 -11 50 -13 l56 -3 -33 -17 c-19 -9 -71 -19 -120 -23 -66 -5 -88 -10 -88
-21 0 -10 -12 -14 -40 -14 -22 0 -40 4 -40 9 0 5 -21 11 -47 13 -35 3 -51 0
-60 -12 -12 -13 -14 -13 -26 1 -8 11 -32 18 -65 20 -43 3 -53 1 -58 -13 -6
-21 -20 -23 -28 -5 -5 10 -7 10 -12 0 -3 -7 -18 -13 -32 -13 -16 0 -32 -8 -39
-19 -7 -11 -28 -24 -47 -31 -35 -11 -36 -13 -36 -61 0 -30 4 -49 11 -49 8 0
10 -18 6 -60 -9 -82 2 -180 19 -180 8 0 14 -4 14 -10 0 -5 -19 -10 -42 -11
-37 0 -40 -2 -20 -10 13 -5 26 -18 29 -29 4 -16 14 -20 43 -20 32 0 37 -3 33
-19 -5 -21 19 -31 80 -31 33 0 37 -3 37 -25 0 -14 5 -25 10 -25 6 0 10 5 10
10 0 6 15 10 34 10 19 0 36 6 39 12 2 7 2 3 0 -9 -2 -17 1 -23 16 -23 11 0 23
-12 32 -32 10 -26 14 -28 19 -13 5 15 10 13 28 -16 11 -19 35 -42 52 -52 17
-10 39 -28 50 -40 11 -11 30 -22 42 -24 30 -5 34 -11 21 -32 -9 -14 -8 -22 5
-35 14 -14 15 -18 2 -31 -10 -10 -14 -29 -12 -60 4 -40 7 -45 28 -45 13 0 24
-4 24 -10 0 -5 -4 -10 -10 -10 -5 0 -15 -10 -21 -22 -17 -32 8 -46 69 -38 45
5 49 4 44 -13 -2 -10 1 -30 9 -43 10 -20 10 -29 1 -44 -7 -11 -12 -29 -12 -40
0 -11 -4 -20 -10 -20 -5 0 -10 -7 -10 -15 0 -20 -47 -68 -59 -61 -5 4 -7 -2
-5 -11 4 -13 -6 -24 -33 -38 -21 -11 -40 -22 -43 -25 -18 -21 -72 -50 -92 -50
-12 -1 -34 -7 -48 -15 -14 -8 -37 -14 -51 -15 -14 0 -37 -9 -50 -20 -12 -12
-39 -31 -59 -42 -47 -29 -100 -83 -100 -103 0 -10 -12 -29 -27 -43 -18 -18
-29 -39 -30 -61 -1 -19 -8 -39 -15 -44 -10 -7 -10 -10 0 -14 7 -2 12 -22 12
-44 0 -21 5 -39 10 -39 6 0 10 10 10 23 0 41 16 51 25 15 8 -33 8 -33 12 -6 4
25 8 28 44 28 21 0 39 -4 39 -10 0 -5 18 -10 40 -10 22 0 40 5 40 10 0 6 9 10
19 10 11 0 23 5 26 10 3 6 22 10 41 10 19 0 34 5 34 10 0 6 13 10 30 10 16 0
54 11 85 25 30 13 57 23 59 22 1 -1 11 4 20 12 17 14 58 30 179 71 32 11 64
23 70 27 7 4 17 8 24 9 6 1 22 11 34 23 12 11 36 23 53 27 17 3 39 15 49 26
10 10 32 21 48 25 16 3 29 11 29 17 0 6 21 22 48 36 26 13 49 27 52 30 13 15
69 50 80 50 6 0 18 7 26 15 9 8 23 15 33 15 9 0 32 14 50 32 30 29 38 32 129
39 53 5 109 8 125 9 17 0 27 5 27 15 0 22 57 20 63 -2 4 -17 5 -17 6 0 2 27
21 20 21 -9 0 -14 4 -23 10 -19 5 3 10 15 10 26 0 34 17 20 27 -23 6 -25 11
-34 12 -20 0 12 5 22 10 22 15 0 33 -29 26 -41 -14 -21 39 2 60 27 23 26 44
31 63 12 9 -9 12 -6 12 15 0 17 -5 27 -15 27 -8 0 -15 3 -15 7 0 14 73 73 91
73 16 0 19 8 19 44 0 23 5 58 11 76 9 24 9 34 0 40 -9 5 -8 16 5 43 10 21 21
37 26 37 4 0 8 6 8 13 0 6 23 59 50 116 27 57 47 107 44 112 -5 9 17 94 34
125 6 11 18 40 27 67 9 26 20 47 25 47 9 0 33 55 33 76 0 18 37 29 47 14 9
-15 20 22 20 70 0 48 10 80 24 80 6 0 18 8 25 18 8 12 22 17 35 15 16 -3 28 3
40 21 9 14 23 26 31 26 14 0 52 74 62 122 3 14 14 28 24 31 10 3 19 14 19 25
0 10 9 27 20 37 11 10 17 22 14 26 -3 5 6 13 21 19 14 5 28 18 32 27 3 10 18
28 32 41 19 17 22 25 12 31 -9 6 -4 16 19 40 17 17 37 31 44 31 20 0 67 40 60
51 -3 5 2 24 10 41 10 19 12 34 7 38 -6 3 -6 11 -1 20 6 8 10 25 10 38 0 12 4
22 10 22 5 0 7 6 4 14 -10 26 43 114 78 130 53 25 124 9 171 -37 20 -21 37
-42 37 -47 0 -6 5 -10 10 -10 6 0 10 -6 10 -13 0 -7 25 -39 55 -72 30 -33 55
-63 55 -68 0 -4 16 -15 36 -24 28 -14 39 -15 54 -5 14 9 20 9 23 -1 12 -37 -8
59 -25 117 -11 39 -20 85 -20 105 0 19 -6 52 -14 73 -7 21 -11 45 -8 53 3 8
-4 24 -16 37 -15 16 -20 31 -16 48 4 14 11 54 18 90 7 44 20 77 40 101 15 20
28 44 28 53 0 9 7 19 15 22 8 4 15 18 15 34 0 16 -7 30 -15 34 -21 8 -19 38 2
34 11 -2 20 -15 23 -33 7 -40 21 -18 32 50 14 82 14 109 -1 132 -11 20 -11 24
4 29 9 4 26 2 38 -5 35 -18 61 -35 69 -46 4 -5 8 2 8 17 0 15 -4 30 -10 33
-16 10 -11 28 6 21 8 -3 12 -2 9 4 -3 6 -17 10 -31 10 -22 0 -24 4 -23 43 1
23 4 33 6 23 3 -11 11 -26 19 -34 12 -11 14 -9 14 17 0 17 -4 31 -8 31 -9 0
-32 59 -32 84 0 9 7 19 15 22 32 13 14 74 -22 74 -22 0 -24 3 -19 26 5 17 3
23 -4 19 -5 -3 -10 -2 -10 4 0 5 3 11 8 13 4 2 22 32 41 67 48 90 81 121 95
86 3 -8 13 -15 21 -15 18 0 13 33 -10 60 -18 23 -25 49 -15 55 16 10 49 -14
56 -41 4 -14 17 -37 30 -51 13 -14 32 -40 42 -57 16 -27 17 -36 7 -50 -12 -15
-10 -56 3 -56 2 0 11 8 18 18 7 9 18 17 26 17 8 0 12 12 11 33 -1 32 0 33 18
16 10 -9 40 -48 66 -88 26 -39 51 -73 54 -76 14 -11 49 -91 44 -100 -3 -5 -1
-11 5 -15 5 -3 10 -15 10 -25 0 -16 -3 -17 -30 -7 -17 7 -30 19 -30 29 0 9 -5
20 -11 24 -8 5 -8 8 0 13 8 5 7 13 -4 27 -14 19 -14 18 -15 -3 0 -29 -14 -29
-28 -1 -10 22 -11 22 -11 2 -1 -11 6 -29 14 -40 8 -10 15 -26 15 -34 0 -9 9
-23 20 -33 20 -17 29 -64 10 -52 -5 3 -10 13 -10 21 0 8 -4 14 -10 14 -5 0
-10 -9 -10 -20 0 -11 5 -20 10 -20 6 0 10 -12 10 -27 0 -16 5 -45 11 -66 12
-44 7 -56 -16 -37 -21 17 -29 7 -16 -18 6 -12 11 -39 11 -62 0 -39 4 -49 42
-90 28 -31 66 -120 61 -141 -3 -11 -14 -24 -24 -30 -24 -13 -27 -100 -4 -119
8 -7 15 -19 15 -28 0 -9 9 -25 19 -36 19 -21 54 -166 40 -166 -8 0 10 -46 46
-125 20 -41 34 -112 35 -163 0 -24 7 -56 15 -72 8 -16 12 -36 9 -44 -3 -8 -2
-21 2 -27 13 -21 16 -121 5 -129 -8 -4 -8 -16 -2 -36 5 -16 12 -46 16 -66 3
-21 10 -38 14 -38 5 0 14 -30 20 -67 12 -71 54 -207 77 -252 8 -14 14 -34 14
-45 0 -22 40 -135 74 -209 28 -63 73 -193 90 -262 7 -27 24 -70 38 -95 25 -45
43 -93 93 -265 15 -49 33 -103 42 -118 8 -16 15 -44 15 -63 0 -19 6 -40 13
-47 16 -17 38 -102 36 -147 0 -19 4 -60 10 -90 6 -30 13 -75 15 -100 3 -24 10
-54 17 -65 7 -11 14 -35 15 -54 2 -19 12 -55 23 -80 33 -75 56 -157 74 -265 8
-47 25 -76 45 -76 13 0 13 -2 1 -9 -10 -7 -15 -37 -16 -113 -3 -128 -10 -158
-39 -159 -16 -1 -17 -2 -3 -6 9 -2 17 -11 17 -20 0 -10 -6 -14 -20 -10 -16 4
-20 0 -20 -18 0 -13 -3 -25 -7 -27 -27 -12 -86 -131 -79 -157 6 -17 -26 -61
-43 -61 -6 0 -11 -4 -11 -9 0 -5 -13 -23 -29 -40 -17 -18 -33 -41 -36 -52 -4
-10 -11 -19 -16 -19 -5 0 -9 -13 -9 -30 0 -16 5 -30 10 -30 6 0 10 9 10 20 0
11 5 20 10 20 6 0 10 9 10 20 0 11 4 20 9 20 15 0 18 -89 4 -95 -7 -2 -13 -12
-13 -22 0 -16 8 -18 55 -15 44 3 59 9 74 28 10 13 23 24 29 24 6 0 12 5 14 12
2 6 25 12 49 13 25 1 52 6 59 10 10 6 12 1 7 -21 -8 -41 23 -62 56 -39 12 8
38 15 59 15 21 0 38 5 38 10 0 6 12 10 27 10 14 0 23 -3 20 -6 -3 -4 -2 -15 4
-25 14 -27 -31 -54 -87 -50 -35 2 -44 -1 -44 -13 0 -18 -25 -22 -35 -6 -3 6
-1 10 6 10 9 0 10 3 3 10 -7 7 -19 6 -37 -2 -21 -10 -27 -20 -27 -45 0 -53 8
-63 51 -63 40 0 52 -13 22 -24 -14 -6 -11 -13 22 -41 21 -19 47 -35 57 -35 12
0 18 -7 18 -22 0 -22 1 -21 24 7 20 25 26 28 40 16 14 -12 16 -10 16 13 0 19
6 27 25 32 14 4 29 4 32 0 4 -3 -1 -6 -10 -6 -13 0 -17 -9 -17 -40 0 -22 -4
-40 -10 -40 -5 0 -10 -19 -11 -42 0 -29 -3 -37 -8 -25 -6 17 -8 17 -20 3 -7
-9 -20 -16 -28 -16 -8 0 -12 -4 -8 -10 3 -5 33 -7 70 -3 57 5 65 4 71 -13 18
-58 22 -60 29 -16 5 25 13 42 21 42 8 0 14 -7 14 -15 0 -9 6 -12 15 -9 9 4 29
1 46 -7 l31 -12 -23 -18 c-13 -10 -33 -19 -44 -20 -11 0 18 -11 65 -23 77 -21
88 -22 120 -9 23 9 36 10 38 3 6 -18 22 -11 32 16 6 14 19 28 30 31 11 3 20 9
20 13 0 5 9 6 20 3 23 -6 50 12 50 33 0 8 -7 14 -15 14 -19 0 -19 14 1 31 13
10 17 10 24 -1 7 -12 12 -11 29 4 11 10 18 23 15 29 -2 7 11 25 30 41 20 16
32 34 29 42 -3 8 1 14 11 14 10 0 13 -6 10 -15 -11 -29 13 -43 64 -37 26 3 48
9 50 13 2 5 23 9 47 9 29 0 45 5 49 15 3 8 1 15 -4 15 -6 0 -10 5 -10 11 0 6
10 9 22 7 16 -2 25 -15 36 -53 8 -27 17 -44 19 -37 3 6 17 12 33 12 15 0 33 6
39 14 7 8 23 17 36 20 15 4 25 14 25 24 0 29 21 42 67 42 36 0 43 3 43 20 0
26 31 26 47 1 7 -11 26 -22 43 -26 17 -4 34 -13 37 -21 3 -8 11 -14 19 -14 17
0 19 41 2 58 -6 6 -8 15 -3 19 4 5 10 2 12 -4 3 -9 30 -13 84 -13 72 0 79 2
79 20 0 17 7 20 40 20 l40 0 2 -92 c1 -51 1 -110 0 -130 -2 -32 1 -38 18 -38
15 0 20 7 20 29 0 54 20 45 44 -19 4 -8 4 11 2 43 -5 59 2 69 25 41 10 -12 26
-15 70 -12 55 4 58 3 62 -21 3 -14 1 -36 -5 -50 -5 -14 -6 -22 -2 -18 4 4 17
-10 30 -31 21 -34 21 -38 6 -44 -14 -6 -14 -8 6 -14 15 -4 25 -17 29 -34 5
-26 7 -27 36 -19 44 13 57 11 57 -6 0 -10 11 -15 35 -15 54 0 84 -18 91 -57 3
-18 10 -36 15 -39 12 -7 66 23 78 43 10 17 12 17 25 1 7 -10 18 -18 24 -18 18
0 34 -40 28 -66 -7 -25 -52 -54 -86 -54 -11 0 -20 -5 -20 -11 0 -8 12 -10 34
-6 22 3 41 0 53 -8 26 -20 43 -18 43 6 0 11 5 17 10 14 6 -3 10 -19 10 -34 0
-16 7 -34 15 -41 8 -7 15 -19 15 -26 0 -8 7 -14 16 -14 9 0 14 -6 11 -12 -3
-8 5 -14 21 -15 15 0 28 -6 30 -12 2 -7 15 -25 28 -40 13 -16 24 -34 24 -40 0
-5 9 -15 20 -21 11 -6 20 -17 20 -24 0 -8 6 -16 14 -19 8 -3 25 -23 37 -45 28
-47 68 -72 119 -72 39 0 100 22 132 48 9 7 22 14 30 16 7 1 19 5 26 10 7 4 38
10 70 13 31 3 62 9 67 13 6 4 26 10 46 14 28 5 42 2 62 -14 14 -11 32 -20 41
-20 21 0 66 -21 66 -32 0 -5 11 -13 25 -18 26 -10 33 -34 15 -45 -15 -9 7 -35
30 -35 10 0 23 7 30 15 14 17 40 20 40 5 0 -5 11 -12 25 -16 18 -4 25 -13 25
-30 0 -13 5 -24 10 -24 6 0 10 9 10 20 0 23 17 25 44 5 10 -8 23 -12 29 -8 6
3 16 -2 23 -11 22 -30 153 -8 167 28 6 15 -47 56 -72 56 -6 0 -11 5 -11 10 0
6 -7 10 -15 10 -8 0 -15 5 -15 10 0 6 -7 10 -15 10 -8 0 -23 9 -32 20 -10 11
-23 20 -29 20 -7 0 -14 7 -18 15 -3 8 -17 15 -31 15 -14 0 -24 5 -22 10 1 6
-11 18 -27 28 -16 9 -40 27 -54 40 -14 12 -32 22 -42 22 -17 0 -60 39 -60 56
-1 26 -135 135 -218 177 -27 13 -77 45 -111 71 -35 25 -68 46 -75 46 -6 0 -38
18 -71 41 -78 53 -103 50 -255 -26 -105 -52 -117 -56 -138 -44 -24 15 -206
312 -216 354 -5 18 -2 25 9 25 10 0 15 10 15 29 0 31 -14 41 -57 41 -19 0 -45
21 -104 84 -63 67 -95 92 -161 126 -84 43 -208 129 -208 143 0 4 -5 7 -10 7
-6 0 -23 11 -37 25 -15 13 -40 29 -55 36 -15 6 -28 15 -28 20 0 5 -5 9 -11 9
-8 0 -119 77 -184 127 -26 21 -65 49 -85 63 -57 38 -147 109 -167 131 -11 13
-41 46 -64 73 l-44 48 45 -5 c297 -32 317 -32 355 2 65 59 291 151 405 165 25
3 108 15 185 25 77 11 230 29 340 40 110 12 254 28 320 36 66 8 185 22 265 30
80 8 197 22 260 30 63 7 180 21 260 30 80 9 179 20 220 25 41 6 118 14 170 20
52 6 183 21 290 35 232 30 572 72 690 86 47 5 110 13 140 18 30 5 82 12 115
16 33 3 92 10 130 16 39 5 219 27 400 49 356 43 456 55 580 71 78 9 408 48
590 69 50 6 119 15 155 20 215 33 451 37 775 14 188 -14 248 -15 329 -5 107
12 217 41 281 74 58 29 164 106 175 127 5 10 31 25 58 34 26 9 58 26 72 39 14
12 47 40 75 62 80 65 135 124 185 200 8 13 36 54 62 92 80 118 142 250 189
403 11 36 24 79 30 95 20 62 41 309 35 410 -17 290 -41 436 -140 865 -7 30
-38 165 -70 300 -31 135 -60 261 -65 280 -5 19 -17 69 -26 110 -9 41 -23 104
-31 140 -19 86 -52 235 -64 285 -51 215 -84 383 -104 530 -8 55 -25 134 -39
176 -32 96 -71 280 -97 458 -21 137 -32 189 -90 426 -36 144 -41 170 -64 300
-9 50 -20 113 -26 140 -6 28 -24 122 -41 210 -17 88 -43 207 -59 265 -15 58
-36 143 -45 190 -19 91 -38 179 -60 275 -8 33 -22 94 -31 135 -9 41 -23 99
-31 128 -7 29 -22 92 -33 140 -10 48 -28 130 -40 182 -53 230 -62 280 -65 370
-5 151 -63 471 -142 780 -56 222 -65 257 -113 475 -35 157 -65 273 -85 323 -8
20 -19 57 -24 82 -31 159 -66 317 -86 390 -30 108 -47 179 -85 365 -17 83 -44
206 -60 275 -16 69 -36 157 -44 195 -8 39 -21 102 -30 140 -8 39 -29 144 -46
235 -17 91 -37 197 -45 235 -8 39 -21 120 -30 180 -32 222 -46 311 -57 365
-10 53 -50 185 -68 225 -24 53 -70 263 -70 319 0 21 -13 89 -29 150 -37 137
-58 235 -66 301 -6 54 -18 112 -41 214 -41 170 -43 186 -29 263 21 120 34 158
68 191 65 65 95 176 64 236 -10 21 -78 69 -99 71 -3 0 -9 -23 -13 -51 -9 -67
-31 -63 -68 14 -16 32 -43 72 -59 90 -17 18 -41 55 -55 84 -24 53 -73 280 -98
458 -8 55 -21 132 -30 170 -9 39 -22 95 -29 125 -7 30 -29 116 -48 190 -20 74
-43 178 -53 230 -9 52 -28 147 -42 210 -14 63 -32 144 -39 180 -7 36 -20 97
-29 135 -9 39 -22 102 -30 140 -7 39 -22 113 -33 165 -21 101 -49 259 -81 455
-29 173 -64 332 -106 475 -35 122 -53 203 -96 440 -18 98 -88 407 -118 520 -6
19 -17 67 -25 105 -55 248 -80 335 -144 485 -63 149 -128 273 -187 360 -231
338 -391 481 -640 573 -226 82 -364 99 -945 117 -157 5 -397 18 -535 30 -137
11 -313 25 -390 30 -77 5 -189 14 -250 20 -60 6 -171 15 -245 20 -74 6 -216
17 -315 25 -99 7 -241 19 -315 24 -74 6 -189 16 -255 21 -66 6 -181 15 -255
21 -74 5 -209 16 -300 24 -91 8 -255 21 -365 29 -110 8 -265 20 -345 26 -80 5
-226 17 -325 25 -212 18 -242 20 -485 35 -102 6 -192 14 -200 17 -8 4 -19 5
-23 4 -24 -5 -413 31 -421 39 -6 6 -38 10 -72 10 -35 0 -66 5 -69 10 -5 8 -12
7 -22 -1 -11 -10 -16 -10 -22 -1 -11 19 -441 24 -511 6z m765 -355 c115 -9
389 -27 730 -49 88 -5 205 -14 260 -20 55 -5 152 -14 215 -20 63 -6 124 -12
136 -14 11 -2 60 -7 110 -11 49 -3 123 -10 164 -16 41 -5 111 -12 155 -15 44
-3 94 -8 110 -10 17 -3 66 -9 109 -14 82 -9 128 -30 68 -30 -18 0 -32 5 -32
10 0 6 -17 10 -37 9 -72 -4 -418 13 -453 22 -19 5 -91 11 -160 15 -69 3 -141
7 -160 9 -19 2 -150 8 -290 14 -140 6 -298 15 -350 20 -52 6 -162 13 -245 16
-82 3 -181 11 -218 16 -103 14 -407 31 -547 30 -255 -1 -369 -23 -538 -102
-89 -42 -115 -59 -176 -122 -39 -40 -81 -93 -94 -118 -12 -24 -27 -51 -32 -59
-10 -16 -30 -56 -53 -106 -8 -17 -20 -35 -26 -38 -6 -4 -11 -27 -11 -52 0 -25
-4 -43 -9 -40 -13 8 -3 120 16 186 30 101 74 174 168 277 58 64 90 83 139 83
19 0 75 17 123 39 156 68 245 89 413 101 119 8 338 3 515 -11z m-513 -449 c26
-32 22 -62 -12 -105 -41 -52 -39 -65 10 -65 29 0 40 -4 40 -15 0 -13 -13 -15
-72 -13 -92 4 -98 18 -34 89 51 57 53 61 30 83 -19 19 -25 20 -59 4 -35 -16
-50 0 -29 31 15 20 23 23 62 18 31 -3 52 -12 64 -27z m174 1 c22 -13 37 -34
48 -67 20 -59 20 -77 1 -114 -19 -37 -53 -46 -92 -26 -43 22 -64 60 -70 126
-5 49 -3 60 16 79 26 26 57 27 97 2z m266 -15 c20 -19 43 -195 28 -210 -19
-18 -38 19 -45 90 -7 62 -8 64 -34 62 -39 -4 -42 35 -4 56 35 19 38 19 55 2z
m220 -37 c30 -36 45 -110 29 -151 -13 -35 -46 -52 -84 -44 -42 8 -57 24 -57
57 0 16 -9 43 -20 61 -26 42 -25 73 1 99 32 32 95 21 131 -22z m-352 1 c0 -11
-7 -20 -15 -20 -8 0 -15 9 -15 20 0 11 7 20 15 20 8 0 15 -9 15 -20z m-1446
-16 c25 -9 19 -24 -9 -24 -16 0 -25 6 -25 15 0 16 9 19 34 9z m1466 -99 c0
-19 -20 -29 -32 -17 -8 8 -7 16 2 26 14 17 30 12 30 -9z m-1404 -65 c8 0 14
-4 14 -10 0 -16 -36 -11 -51 7 -12 15 -12 16 4 10 10 -4 25 -7 33 -7z m-298
-158 c2 -7 -3 -12 -12 -12 -9 0 -16 7 -16 16 0 17 22 14 28 -4z m1100 -66 c7
-33 9 -63 5 -67 -14 -13 -143 52 -143 71 0 19 83 62 110 57 9 -1 19 -24 28
-61z m143 12 c30 -61 49 -73 49 -29 0 45 18 87 32 73 15 -15 -23 -147 -43
-147 -15 0 -63 83 -74 128 -11 44 8 31 36 -25z m156 12 c3 -16 7 -30 10 -30 2
0 15 12 28 28 30 34 43 23 19 -17 l-18 -30 32 -32 c18 -18 32 -36 32 -41 0
-17 -19 -7 -43 22 -31 37 -47 38 -47 5 0 -29 -15 -33 -25 -7 -12 31 -25 114
-19 123 11 18 25 8 31 -21z m-1447 -20 c0 -5 -6 -10 -14 -10 -8 0 -18 5 -21
10 -3 6 3 10 14 10 12 0 21 -4 21 -10z m-45 -70 c3 -5 1 -10 -4 -10 -6 0 -11
5 -11 10 0 6 2 10 4 10 3 0 8 -4 11 -10z m6991 -102 c9 -30 -28 -60 -65 -52
-80 19 -57 67 36 73 14 1 24 -6 29 -21z m-6911 -888 c3 -5 -1 -10 -10 -10 -9
0 -13 5 -10 10 3 6 8 10 10 10 2 0 7 -4 10 -10z m135 -355 c0 -8 -7 -15 -15
-15 -8 0 -15 7 -15 15 0 8 7 15 15 15 8 0 15 -7 15 -15z m-5 -142 c8 -54 21
-145 30 -203 48 -303 52 -344 33 -338 -17 6 -23 36 -58 275 -27 191 -40 386
-24 370 4 -3 12 -50 19 -104z m125 -111 c0 -15 -2 -15 -10 -2 -13 20 -13 33 0
25 6 -3 10 -14 10 -23z m568 -79 c2 -8 -5 -13 -17 -13 -21 0 -35 13 -24 24 10
10 36 3 41 -11z m-561 -65 c-2 -13 -4 -5 -4 17 -1 22 1 32 4 23 2 -10 2 -28 0
-40z m-73 -784 c17 -6 22 -24 8 -24 -5 0 -17 7 -28 15 -19 15 -8 20 20 9z m16
-61 c-8 -3 -27 -15 -43 -25 -15 -11 -33 -18 -40 -15 -17 5 53 47 78 46 14 0
16 -2 5 -6z m50 -44 c0 -6 -4 -7 -10 -4 -5 3 -10 11 -10 16 0 6 5 7 10 4 6 -3
10 -11 10 -16z m-86 -95 c20 -8 11 -24 -15 -24 -10 0 -19 7 -19 15 0 16 9 19
34 9z m-129 -153 c3 -5 1 -12 -5 -16 -5 -3 -10 1 -10 9 0 18 6 21 15 7z m105
-22 c0 -6 -4 -7 -10 -4 -5 3 -10 11 -10 16 0 6 5 7 10 4 6 -3 10 -11 10 -16z
m673 -56 c-7 -2 -19 -2 -25 0 -7 3 -2 5 12 5 14 0 19 -2 13 -5z m44 -279 c-3
-3 -12 -4 -19 -1 -8 3 -5 6 6 6 11 1 17 -2 13 -5z m-497 -395 c0 -5 -7 -9 -15
-9 -15 0 -20 12 -9 23 8 8 24 -1 24 -14z m3345 -198 l139 -6 7 -35 c4 -19 5
-38 3 -42 -6 -9 -256 -9 -492 1 -90 3 -166 3 -168 -1 -2 -3 2 -91 10 -195 15
-188 26 -347 26 -370 0 -22 19 -14 26 11 3 13 23 38 45 56 91 72 215 100 342
76 115 -22 198 -67 288 -156 118 -117 178 -258 179 -423 1 -175 -100 -317
-259 -364 -80 -23 -218 -21 -301 6 -83 26 -176 82 -240 145 -51 50 -113 147
-125 199 -7 26 -6 27 39 27 l46 0 31 -62 c53 -106 167 -194 291 -228 71 -19
193 -9 253 20 99 48 155 133 163 245 12 193 -96 379 -273 466 -66 32 -75 34
-180 34 -96 0 -116 -3 -155 -23 -56 -29 -105 -75 -133 -124 -19 -36 -24 -38
-68 -38 l-48 0 -5 43 c-4 23 -11 114 -16 202 -6 88 -17 245 -25 350 -7 104
-11 193 -9 197 5 8 311 3 609 -11z m938 -21 c106 -33 209 -111 273 -208 52
-78 75 -153 76 -247 1 -145 -34 -210 -355 -645 -55 -74 -115 -155 -133 -179
-19 -24 -34 -48 -34 -53 0 -4 26 -8 58 -9 719 -12 691 -10 692 -71 0 -23 -5
-28 -35 -34 -19 -3 -41 -4 -49 -1 -8 3 -186 7 -396 8 -417 2 -410 1 -410 60 0
31 20 60 304 444 195 262 229 318 256 418 37 138 -55 328 -193 398 -229 117
-457 11 -457 -211 l0 -50 -45 0 c-40 0 -45 3 -51 26 -10 40 4 140 26 193 28
65 94 127 166 156 78 32 211 34 307 5z m1457 -50 c107 -5 205 -12 218 -16 30
-9 30 -50 0 -60 -11 -3 -144 -3 -294 1 l-274 7 -9 -23 c-15 -41 27 -511 48
-532 7 -7 23 3 53 36 66 70 122 91 244 91 56 1 112 -4 125 -10 116 -51 170
-85 221 -136 81 -82 117 -139 150 -236 23 -71 28 -102 28 -186 0 -91 -3 -107
-29 -162 -57 -120 -154 -184 -293 -192 -194 -11 -365 70 -472 223 -77 111 -84
145 -27 145 27 0 35 -8 70 -67 84 -145 216 -223 375 -224 134 0 221 49 277
159 20 40 24 61 24 142 -1 136 -39 230 -134 333 -99 106 -253 163 -376 138
-98 -20 -170 -73 -217 -160 -14 -26 -23 -31 -52 -31 -53 0 -49 -23 -98 590 -6
80 -9 154 -5 163 6 15 22 17 129 17 68 -1 211 -5 318 -10z m968 -32 c287 -12
319 -18 296 -55 -10 -17 -28 -18 -220 -15 -115 2 -230 5 -256 8 -39 5 -50 2
-69 -17 -24 -24 -24 -24 1 -333 10 -124 35 -216 58 -216 5 0 24 19 42 41 66
82 203 117 330 85 94 -24 157 -59 227 -123 163 -154 231 -384 166 -565 -89
-250 -460 -280 -687 -54 -75 75 -127 166 -107 190 19 23 44 6 79 -56 63 -112
195 -200 328 -219 182 -26 315 70 345 247 34 198 -110 433 -311 507 -50 18
-165 25 -220 12 -73 -16 -135 -60 -180 -128 -28 -43 -64 -57 -86 -35 -9 9 -18
50 -24 109 -5 52 -19 193 -31 314 -26 263 -27 279 -10 299 16 19 -5 19 329 4z
m917 -39 c127 -6 266 -12 311 -13 105 -2 147 -28 134 -81 -2 -5 -6 -26 -11
-45 -4 -19 -17 -78 -29 -130 -31 -140 -35 -156 -63 -260 -14 -52 -44 -167 -67
-255 -23 -88 -53 -203 -67 -255 -13 -52 -32 -129 -42 -171 -17 -76 -42 -129
-61 -129 -26 0 -29 39 -9 106 12 38 24 85 28 104 5 19 20 78 36 130 44 152 90
315 130 460 42 155 44 161 88 295 38 116 35 132 -33 171 -41 23 -48 24 -270
24 -290 0 -380 7 -380 29 0 26 22 42 50 36 14 -2 129 -10 255 -16z m-7659 -84
c-18 -28 -36 -33 -36 -10 0 8 5 15 10 15 6 0 16 12 22 28 9 22 12 24 15 9 3
-10 -3 -29 -11 -42z m184 -97 c0 -30 24 -74 38 -71 6 2 16 -14 21 -35 22 -87
22 -94 9 -88 -7 3 -20 8 -28 12 -8 3 -23 23 -32 45 -19 44 -34 50 -48 17 -8
-22 -16 -8 -10 17 2 6 2 24 1 41 -1 17 3 43 9 58 12 32 40 35 40 4z m70 -1436
c0 -37 -5 -74 -10 -82 -7 -10 -10 13 -10 73 0 56 4 86 10 82 6 -3 10 -36 10
-73z m41 -75 c-8 -8 -11 -1 -11 24 0 46 14 60 18 19 2 -18 -1 -37 -7 -43z
m2282 -334 c-7 -2 -21 -2 -30 0 -10 3 -4 5 12 5 17 0 24 -2 18 -5z m3573 -308
c20 -8 44 -25 54 -37 15 -19 21 -21 43 -11 17 8 43 9 78 4 28 -5 80 -6 115 -3
55 4 64 2 64 -12 0 -17 1 -16 -285 -18 -35 0 -40 -2 -17 -5 17 -2 32 -8 32
-12 0 -9 -49 -21 -86 -21 -27 0 -31 -12 -9 -30 11 -9 12 -16 5 -25 -7 -9 -6
-16 5 -25 8 -7 15 -15 15 -19 -1 -35 -74 -56 -117 -34 -15 8 -25 11 -21 8 3
-4 2 -20 -2 -36 -5 -17 -5 -31 1 -34 17 -11 9 -64 -14 -90 -15 -18 -36 -28
-64 -32 -40 -5 -44 -4 -56 23 -7 16 -20 44 -30 61 -16 29 -20 31 -42 21 -20
-9 -22 -14 -14 -29 19 -36 -14 -69 -67 -69 -16 0 -24 -6 -24 -17 -1 -54 -87
-92 -141 -63 -14 8 -20 8 -23 -2 -17 -64 -22 -71 -66 -89 -44 -18 -45 -18 -13
-18 18 -1 47 5 65 13 18 8 40 17 48 21 8 3 40 19 70 35 55 30 55 30 72 10 12
-15 28 -20 62 -20 52 0 68 -18 47 -53 -10 -16 -10 -21 1 -28 7 -5 18 -9 23 -9
31 -1 85 -23 85 -35 0 -8 -15 -17 -37 -20 -21 -4 -56 -13 -78 -20 -22 -7 -87
-28 -144 -46 -89 -27 -172 -72 -201 -108 -22 -27 -104 -79 -168 -106 -166 -71
-199 -97 -355 -275 l-48 -55 28 -12 c15 -7 62 -12 103 -13 112 0 247 -39 194
-55 -10 -4 -59 -25 -108 -48 -87 -41 -90 -42 -195 -41 -113 1 -187 17 -276 60
-65 31 -132 54 -159 54 -11 0 -40 10 -62 23 -112 60 -130 71 -140 86 -10 13
-15 11 -37 -15 -33 -40 -98 -69 -132 -60 -40 10 -75 50 -75 86 0 37 13 65 48
103 23 24 25 31 14 47 -8 14 -9 25 -2 38 22 38 60 135 66 168 10 55 108 119
172 112 29 -4 41 1 69 28 18 18 43 36 54 39 11 4 31 17 44 31 28 28 36 29 92
9 43 -15 128 -11 139 6 3 5 13 9 22 9 25 0 49 18 36 28 -6 4 -18 29 -27 57
-14 46 -14 51 0 67 24 26 56 22 92 -13 42 -40 75 -37 79 9 3 33 19 41 40 20
10 -10 19 -8 43 6 21 12 42 17 64 13 28 -5 36 -1 50 19 18 28 18 28 -52 8 -31
-9 -59 -12 -64 -7 -4 4 -4 37 2 73 5 36 13 93 16 127 l6 61 57 26 c65 29 130
35 130 11 0 -8 7 -15 15 -15 8 0 15 -4 15 -9 0 -5 10 -13 22 -17 12 -3 28 -13
36 -20 7 -8 20 -14 27 -14 8 0 33 -17 55 -38 34 -31 48 -37 72 -34 28 4 29 7
27 46 -3 58 10 105 35 121 35 23 122 38 154 27 17 -7 21 -11 10 -11 -10 -1
-18 -7 -18 -15 0 -21 70 -78 87 -72 8 3 19 6 24 6 15 0 10 40 -6 46 -31 12
-14 26 23 19 33 -5 42 -2 70 24 23 23 41 31 67 31 19 0 35 5 35 10 0 6 -9 10
-20 10 -11 0 -20 3 -20 8 1 14 49 42 87 51 56 13 70 13 109 -4z m527 -52 c41
-18 33 -35 -13 -28 -14 2 -51 7 -82 10 -61 7 -74 19 -35 35 27 11 80 4 130
-17z m-2259 -24 c-3 -5 -10 -7 -15 -3 -5 3 -7 10 -3 15 3 5 10 7 15 3 5 -3 7
-10 3 -15z m2326 -99 c13 -8 13 -10 -2 -10 -9 0 -20 5 -23 10 -8 13 5 13 25 0z
m1450 -185 c0 -8 -7 -15 -15 -15 -8 0 -15 7 -15 15 0 8 7 15 15 15 8 0 15 -7
15 -15z m-1390 -29 c0 -16 -18 -31 -27 -22 -8 8 5 36 17 36 5 0 10 -6 10 -14z
m1569 -112 c17 -12 19 -18 9 -33 -9 -16 -32 -19 -169 -25 -165 -6 -209 1 -209
34 0 37 20 41 186 39 124 0 167 -4 183 -15z m-1678 -81 c-5 -17 -25 -46 -44
-65 -19 -18 -43 -47 -53 -64 -22 -36 -82 -89 -91 -80 -3 3 8 20 26 38 17 17
31 37 31 43 0 6 11 17 24 25 14 7 27 22 30 34 5 22 75 110 82 103 2 -2 0 -17
-5 -34z m1566 -116 c-4 -10 -13 -13 -26 -10 -24 6 -27 23 -9 41 16 16 43 -9
35 -31z m-2187 -91 c0 -12 -24 -58 -52 -101 -65 -98 -104 -126 -333 -242 -106
-54 -196 -107 -240 -142 -38 -32 -94 -67 -122 -78 l-53 -22 14 27 c8 15 79 87
158 161 78 74 149 144 157 156 9 15 28 25 50 28 20 3 73 18 119 34 73 25 90
36 143 91 33 34 75 70 92 79 18 8 36 22 40 30 11 19 27 7 27 -21z m-3220 -436
c0 -5 -12 -10 -26 -10 -14 0 -23 4 -19 10 3 6 15 10 26 10 10 0 19 -4 19 -10z
m3987 -1021 c50 -24 105 -91 126 -152 36 -105 40 -127 40 -207 0 -66 -5 -93
-20 -120 -44 -79 -132 -102 -221 -58 -51 26 -97 80 -88 104 7 19 45 9 64 -17
29 -42 117 -63 161 -39 28 14 51 83 51 150 0 33 -3 60 -6 60 -4 0 -24 -16 -45
-35 -34 -30 -46 -35 -89 -35 -93 0 -175 67 -201 164 -40 147 89 252 228 185z
m1629 -64 c58 -58 94 -85 110 -85 8 0 30 25 49 55 46 71 85 93 85 47 0 -8 -16
-46 -36 -85 -24 -48 -34 -77 -29 -94 3 -13 35 -52 70 -88 36 -35 65 -71 65
-79 0 -39 -34 -22 -117 61 -23 24 -48 43 -55 43 -17 0 -63 -56 -84 -102 -18
-40 -42 -49 -63 -24 -14 16 -8 33 36 106 18 30 33 66 33 79 0 15 -23 47 -70
95 -43 45 -70 81 -70 94 0 35 27 26 76 -23z m-1238 -1940 c44 -19 79 -50 98
-87 14 -27 14 -28 -13 -28 -17 0 -39 12 -60 32 -29 28 -40 32 -87 32 -67 1
-90 -17 -106 -85 -12 -49 -6 -139 9 -139 4 0 13 11 19 26 23 49 122 69 188 38
48 -23 101 -86 114 -136 7 -23 10 -67 8 -96 -4 -45 -10 -59 -42 -90 -35 -36
-38 -37 -110 -37 -68 0 -77 3 -113 31 -70 57 -110 136 -133 267 -37 207 72
337 228 272z m-1770 -92 l3 -33 -64 0 c-35 0 -92 -3 -126 -6 l-62 -7 6 -66 c3
-36 9 -78 11 -94 l6 -27 29 24 c121 102 316 -44 296 -221 -5 -49 -27 -85 -71
-117 -41 -31 -147 -29 -199 3 -40 25 -81 72 -92 109 -6 20 -3 22 29 22 24 0
36 -5 36 -14 0 -8 16 -28 35 -45 31 -26 44 -31 89 -31 48 0 57 3 80 31 50 59
29 157 -45 212 -49 36 -143 20 -170 -29 -10 -20 -19 -24 -43 -22 l-31 3 -7 93
c-4 51 -11 122 -16 157 -5 36 -6 69 -2 74 3 6 60 12 125 14 190 5 180 7 183
-30z m3703 -83 c23 -19 23 -21 6 -34 -20 -15 -218 -30 -317 -24 -54 3 -55 4
-55 33 l0 30 140 5 c77 3 154 7 171 8 20 1 41 -6 55 -18z m-5647 -115 c8 -8
20 -41 26 -73 37 -192 31 -176 75 -182 35 -4 40 -8 40 -30 0 -20 -6 -26 -30
-30 -32 -6 -34 -13 -24 -95 4 -27 1 -30 -26 -30 -28 0 -30 3 -40 55 l-10 55
-132 1 c-72 1 -136 4 -142 8 -18 12 -12 68 14 121 14 28 25 55 25 60 0 6 9 21
19 34 l19 24 11 -21 c9 -18 7 -32 -12 -78 -14 -31 -22 -65 -19 -76 4 -16 12
-18 71 -13 104 9 131 15 131 28 0 7 -7 50 -15 97 -17 97 -19 160 -6 160 5 0
16 -7 25 -15z m3781 -1685 c-11 -5 -27 -9 -35 -9 -13 -1 -13 0 0 9 8 5 24 9
35 9 l20 0 -20 -9z m2072 -12 c4 -7 17 -49 28 -93 l20 -80 75 0 c85 -1 100 -6
100 -40 0 -26 -17 -32 -105 -37 l-40 -3 1 -45 c0 -25 3 -67 5 -95 4 -48 3 -50
-21 -50 -22 0 -26 6 -38 65 -26 125 -16 115 -112 115 -82 0 -83 0 -91 27 -10
37 4 45 81 47 36 1 69 6 73 10 4 4 0 42 -9 84 -9 41 -14 83 -11 91 8 19 33 21
44 4z m-1719 -70 c66 -40 98 -155 57 -210 -11 -15 -28 -29 -37 -31 -25 -7 -23
-27 2 -27 83 0 151 -121 120 -214 -42 -129 -268 -126 -335 5 -21 40 -19 49 13
49 19 0 32 -8 43 -28 28 -49 105 -74 162 -53 43 17 57 39 57 92 0 40 -5 55
-29 81 -27 30 -34 33 -105 36 l-76 4 0 29 c0 27 3 29 35 29 77 0 119 49 104
120 -11 50 -50 80 -105 80 -56 0 -91 -22 -100 -63 -7 -35 -19 -47 -46 -47 -40
0 -11 115 37 146 56 37 143 38 203 2z m-1845 -120 c42 -33 77 -101 77 -150 0
-55 -23 -108 -100 -229 -39 -62 -69 -117 -66 -124 3 -8 24 -9 72 -4 38 5 93 8
121 8 48 1 53 -1 59 -25 4 -14 3 -29 -2 -34 -10 -9 -334 -31 -346 -24 -23 14
-1 68 76 189 109 172 116 186 116 235 0 84 -56 138 -130 125 -47 -8 -71 -33
-79 -83 -6 -33 -10 -37 -39 -40 -32 -3 -32 -3 -32 40 0 52 27 100 72 129 49
30 152 24 201 -13z m2112 -28 c-3 -5 -10 -10 -16 -10 -5 0 -9 5 -9 10 0 6 7
10 16 10 8 0 12 -4 9 -10z m-4079 -105 c7 -22 24 -110 39 -195 41 -234 52
-292 60 -322 5 -21 2 -29 -15 -38 -35 -19 -56 9 -69 93 -6 40 -20 122 -31 182
-12 61 -23 134 -27 163 -5 46 -9 52 -29 52 -12 0 -39 -16 -58 -35 -40 -39 -51
-42 -60 -19 -13 34 -4 53 55 108 51 48 65 57 92 54 28 -3 33 -8 43 -43z
m-2608 -1756 c2 -23 2 -23 -13 -5 -18 24 -20 39 -2 34 6 -3 13 -15 15 -29z
m8746 -42 c6 -15 7 -29 3 -33 -6 -6 -66 -13 -277 -33 -113 -11 -122 -8 -118
39 3 22 8 25 48 28 25 2 106 9 180 16 74 8 140 13 145 11 6 -1 14 -14 19 -28z
m-8634 -13 c0 -19 -16 -18 -24 2 -11 27 -7 37 9 24 8 -7 15 -19 15 -26z m79
-128 c16 -30 35 -57 41 -61 5 -3 10 -13 10 -22 0 -12 -5 -10 -21 8 -33 38 -79
107 -79 118 0 25 20 7 49 -43z m8607 -90 c3 -14 3 -29 0 -34 -6 -10 -195 -31
-311 -35 l-80 -2 -3 33 c-3 29 -1 32 25 33 15 0 46 3 68 5 69 9 188 20 242 22
48 3 53 1 59 -22z m-5795 -97 c87 -38 148 -145 170 -302 25 -167 -18 -280
-116 -307 -127 -36 -247 83 -290 288 -18 89 -19 153 -2 210 34 114 128 158
238 111z m3848 -241 c0 -29 -4 -75 -7 -103 -6 -42 -11 -51 -29 -53 -23 -3 -23
-2 -23 102 l0 106 30 0 c30 0 30 -1 29 -52z m3491 -1089 c0 -5 -4 -9 -10 -9
-5 0 -10 7 -10 16 0 8 5 12 10 9 6 -3 10 -10 10 -16z m-12980 -3 c0 -2 -7 -9
-15 -16 -12 -10 -15 -10 -15 4 0 9 7 16 15 16 8 0 15 -2 15 -4z m9820 -6 c0
-5 -7 -10 -15 -10 -8 0 -15 5 -15 10 0 6 7 10 15 10 8 0 15 -4 15 -10z
m-10030 -157 c0 -5 -5 -15 -10 -23 -9 -13 -11 -13 -20 0 -15 22 -12 30 10 30
11 0 20 -3 20 -7z m10740 -8 c0 -8 -7 -15 -15 -15 -16 0 -20 12 -8 23 11 12
23 8 23 -8z m-10897 -12 c-13 -2 -33 -2 -45 0 -13 2 -3 4 22 4 25 0 35 -2 23
-4z m272 -3 c3 -5 1 -10 -4 -10 -6 0 -11 5 -11 10 0 6 2 10 4 10 3 0 8 -4 11
-10z m11615 -110 c0 -5 -7 -10 -16 -10 -8 0 -12 5 -9 10 3 6 10 10 16 10 5 0
9 -4 9 -10z m-63 -156 c-9 -9 -28 6 -21 18 4 6 10 6 17 -1 6 -6 8 -13 4 -17z
m1606 -71 c-9 -27 -24 -43 -34 -38 -12 8 12 55 27 55 8 0 11 -7 7 -17z m-53
-83 c0 -5 -8 -10 -17 -10 -15 0 -16 2 -3 10 19 12 20 12 20 0z m-17 -88 c-5
-22 -29 -36 -44 -26 -5 3 -9 2 -10 -3 -3 -39 -13 -61 -35 -77 -17 -12 -23 -24
-19 -37 5 -14 2 -17 -9 -13 -8 3 -19 -3 -25 -14 -6 -11 -19 -28 -28 -38 -19
-19 -36 -45 -53 -83 -6 -13 -13 -22 -15 -19 -8 8 15 76 30 88 8 7 15 18 15 24
0 6 27 45 60 86 33 41 60 78 60 83 0 4 12 26 26 48 24 39 26 40 39 22 8 -11
11 -29 8 -41z m-88 39 c3 -5 1 -12 -5 -16 -5 -3 -10 1 -10 9 0 18 6 21 15 7z
m65 -115 c0 -16 -18 -31 -27 -22 -8 8 5 36 17 36 5 0 10 -6 10 -14z m-2370
-66 c0 -5 -4 -10 -10 -10 -5 0 -10 5 -10 10 0 6 5 10 10 10 6 0 10 -4 10 -10z
m2300 -156 c-69 -120 -86 -142 -101 -127 -8 8 -6 14 10 22 12 7 21 18 21 26 0
8 10 31 22 52 12 21 33 58 47 83 28 50 45 66 49 46 2 -7 -20 -53 -48 -102z
m-2552 40 c17 -12 22 -24 20 -47 -2 -27 -9 -34 -38 -43 -31 -11 -262 -39 -395
-50 -27 -2 -108 -11 -180 -19 -296 -33 -421 -47 -830 -89 -319 -34 -535 -57
-620 -66 -181 -20 -363 -40 -490 -55 -217 -25 -255 -20 -255 32 0 38 39 54
157 64 121 10 146 12 323 34 69 8 168 19 220 25 52 5 122 14 155 20 33 5 107
14 165 20 58 5 161 16 230 24 154 19 343 40 520 60 74 8 218 24 320 36 102 12
226 25 275 31 50 5 140 16 200 23 154 19 197 19 223 0z m-9983 -474 c-3 -5
-11 -10 -16 -10 -6 0 -7 5 -4 10 3 6 11 10 16 10 6 0 7 -4 4 -10z m12295 -149
c0 -12 -58 -61 -73 -61 -6 0 4 16 23 35 34 35 50 43 50 26z m-1017 -198 c-7
-2 -19 -2 -25 0 -7 3 -2 5 12 5 14 0 19 -2 13 -5z m-248 -33 c-3 -5 -21 -9
-38 -9 l-32 1 30 8 c43 11 47 11 40 0z m-265 -30 c-8 -5 -28 -9 -45 -9 -30 2
-30 2 5 9 51 11 57 11 40 0z m-271 -34 c-2 -2 -21 -6 -42 -10 -27 -5 -37 -4
-32 3 3 6 22 11 42 11 20 0 34 -2 32 -4z m-5396 -13 c9 -9 -13 -34 -24 -27
-14 8 -11 34 4 34 8 0 17 -3 20 -7z m5112 -23 c-11 -5 -31 -9 -45 -9 -20 -1
-22 1 -10 9 8 5 29 9 45 9 26 0 27 -2 10 -9z m-285 -30 c0 -5 -17 -9 -37 -9
l-38 2 35 7 c19 4 36 8 38 9 1 0 2 -3 2 -9z m-92 -17 c-10 -2 -28 -2 -40 0
-13 2 -5 4 17 4 22 1 32 -1 23 -4z m-75 -10 c-7 -2 -21 -2 -30 0 -10 3 -4 5
12 5 17 0 24 -2 18 -5z m-90 -10 c-7 -2 -21 -2 -30 0 -10 3 -4 5 12 5 17 0 24
-2 18 -5z m-574 -64 c-16 -10 -23 -4 -14 10 3 6 11 8 17 5 6 -4 5 -9 -3 -15z
m-201 4 c-10 -2 -28 -2 -40 0 -13 2 -5 4 17 4 22 1 32 -1 23 -4z m-5348 -1197
c0 -3 -4 -8 -10 -11 -5 -3 -10 -1 -10 4 0 6 5 11 10 11 6 0 10 -2 10 -4z m-92
-67 c-3 -8 -7 -3 -11 10 -4 17 -3 21 5 13 5 -5 8 -16 6 -23z m1699 -135 c-3
-3 -12 -4 -19 -1 -8 3 -5 6 6 6 11 1 17 -2 13 -5z m-1579 -16 c-6 -18 -25 -20
-31 -3 -5 10 0 15 14 15 12 0 19 -5 17 -12z m-108 -54 c0 -8 -4 -14 -10 -14
-5 0 -10 9 -10 21 0 11 5 17 10 14 6 -3 10 -13 10 -21z m947 -6 c-3 -8 -6 -5
-6 6 -1 11 2 17 5 13 3 -3 4 -12 1 -19z m-839 -76 c2 -7 -5 -12 -17 -12 -14 0
-19 5 -14 15 6 17 25 15 31 -3z m592 -28 c0 -17 -22 -14 -28 4 -2 7 3 12 12
12 9 0 16 -7 16 -16z m-350 -27 c0 -8 -3 -17 -7 -20 -9 -9 -34 13 -27 24 8 14
34 11 34 -4z m160 -160 c0 -8 -3 -17 -7 -20 -9 -9 -34 13 -27 24 8 14 34 11
34 -4z m1630 -27 c0 -5 -5 -10 -11 -10 -5 0 -7 5 -4 10 3 6 8 10 11 10 2 0 4
-4 4 -10z m164 -76 c4 -10 -4 -14 -29 -14 -27 0 -35 4 -35 18 0 10 3 21 6 25
9 8 52 -13 58 -29z m121 -44 c-3 -5 -12 -10 -20 -10 -8 0 -17 5 -20 10 -4 6 5
10 20 10 15 0 24 -4 20 -10z"/>
<path d="M8282 21458 c-38 -38 24 -165 67 -138 19 11 9 105 -14 130 -21 23
-36 25 -53 8z"/>
<path d="M8746 21425 c-12 -12 -13 -21 -6 -36 11 -20 19 -23 44 -13 21 8 20
27 -3 48 -17 16 -20 16 -35 1z"/>
<path d="M8777 21313 c-14 -13 -6 -23 18 -23 16 0 25 6 25 15 0 15 -31 21 -43
8z"/>
<path d="M13138 14603 c7 -3 16 -2 19 1 4 3 -2 6 -13 5 -11 0 -14 -3 -6 -6z"/>
<path d="M13045 14490 c3 -5 10 -10 16 -10 5 0 9 5 9 10 0 6 -7 10 -16 10 -8
0 -12 -4 -9 -10z"/>
<path d="M12485 14350 c3 -5 8 -10 11 -10 2 0 4 5 4 10 0 6 -5 10 -11 10 -5 0
-7 -4 -4 -10z"/>
<path d="M12327 14023 c-4 -3 -7 -16 -7 -28 0 -13 -7 -28 -15 -35 -33 -27 1
-90 48 -90 30 0 50 28 36 51 -5 7 -9 35 -9 62 0 43 -2 47 -23 47 -13 0 -27 -3
-30 -7z"/>
<path d="M11696 13758 c-9 -34 -7 -68 3 -68 12 0 21 26 21 61 0 34 -15 39 -24
7z"/>
<path d="M11400 13740 c-8 -5 -10 -10 -5 -10 6 0 17 5 25 10 8 5 11 10 5 10
-5 0 -17 -5 -25 -10z"/>
<path d="M13813 12356 c-25 -21 -28 -31 -27 -80 1 -108 90 -174 192 -142 12 4
20 11 17 15 -2 5 4 16 15 26 40 37 9 148 -52 185 -47 28 -109 27 -145 -4z"/>
<path d="M14263 10149 c-23 -12 -53 -65 -53 -94 0 -31 41 -110 67 -129 40 -30
112 -33 145 -7 52 41 49 133 -5 195 -27 31 -40 37 -82 41 -27 3 -60 0 -72 -6z"/>
<path d="M11217 5909 c-87 -68 -50 -353 59 -448 73 -65 165 -26 180 76 14 98
-20 275 -65 328 -54 66 -124 84 -174 44z"/>
<path d="M6562 20250 c0 -14 2 -19 5 -12 2 6 2 18 0 25 -3 6 -5 1 -5 -13z"/>
<path d="M27550 18063 c-21 -8 -50 -34 -50 -45 0 -5 15 -15 34 -23 34 -15 66
-11 66 6 0 5 9 9 19 9 24 0 39 39 20 51 -15 10 -65 11 -89 2z"/>
<path d="M25079 17366 c-4 -5 -20 -8 -94 -21 -76 -13 -190 -59 -288 -117 -55
-32 -102 -58 -107 -58 -4 0 -30 -15 -57 -32 -27 -18 -62 -40 -78 -48 -17 -8
-47 -25 -67 -37 -21 -13 -45 -23 -53 -23 -16 0 -74 -22 -162 -61 -24 -11 -50
-19 -59 -19 -14 0 -70 -21 -151 -57 -18 -7 -50 -20 -70 -27 -21 -8 -74 -30
-118 -51 -44 -20 -93 -43 -110 -50 -78 -32 -142 -55 -153 -55 -6 0 -12 -4 -12
-8 0 -5 -23 -14 -52 -21 -63 -14 -325 -96 -503 -158 -71 -24 -137 -46 -146
-48 -20 -4 -86 -27 -159 -55 -30 -12 -73 -27 -95 -35 -22 -7 -125 -43 -230
-80 -177 -61 -383 -128 -550 -176 -38 -12 -79 -24 -90 -28 -11 -5 -36 -13 -55
-20 -143 -49 -354 -126 -395 -145 -27 -13 -104 -42 -170 -66 -66 -23 -160 -57
-210 -76 -49 -18 -124 -44 -165 -57 -148 -49 -337 -127 -425 -178 -49 -29
-112 -65 -140 -81 -54 -30 -303 -155 -351 -175 -16 -7 -55 -21 -86 -32 -31
-11 -72 -26 -90 -34 -33 -15 -77 -26 -246 -67 -99 -24 -281 -108 -320 -148
-17 -17 -20 -27 -13 -41 6 -10 7 -21 4 -25 -8 -7 105 0 151 10 17 4 36 13 44
20 31 32 80 64 97 64 9 0 34 13 54 29 39 31 81 55 81 47 0 -3 11 -1 25 4 13 5
83 12 156 15 72 3 140 10 150 16 22 11 59 -4 59 -24 0 -7 4 -6 10 3 8 13 12
13 37 -1 26 -15 116 -31 173 -31 17 0 38 15 65 45 23 24 54 51 71 60 16 8 41
28 54 44 20 22 211 127 265 145 16 5 130 82 133 91 2 4 8 7 14 7 6 0 55 20
110 45 80 36 114 46 175 50 42 3 83 10 91 14 9 5 42 6 74 3 33 -2 69 0 81 5
12 6 52 24 89 42 36 17 71 31 77 31 6 0 11 5 11 10 0 6 6 10 14 10 16 0 109
41 128 57 7 6 57 34 111 62 87 45 152 84 167 101 3 3 34 18 69 35 58 27 71 30
158 27 86 -2 147 6 198 27 31 13 105 32 162 41 66 10 171 48 202 71 12 10 37
21 55 24 17 4 47 20 66 36 19 16 40 33 47 39 7 5 18 10 25 10 9 0 9 3 -2 10
-11 7 -12 10 -2 10 8 0 28 6 45 14 66 28 104 45 157 67 30 12 62 28 71 36 8 7
20 13 25 13 6 0 19 8 30 18 10 10 38 26 62 35 23 9 60 28 82 42 22 14 46 25
55 25 8 0 48 15 87 33 40 18 89 39 108 47 19 8 37 17 40 20 3 4 54 23 114 44
60 21 130 47 155 58 25 11 93 37 150 59 57 22 109 43 115 48 6 4 25 11 41 15
17 4 72 27 122 51 51 25 112 49 134 55 23 6 49 15 58 20 9 5 45 19 81 30 36
12 74 25 85 30 42 19 113 38 195 54 47 9 119 27 160 40 41 13 95 30 120 37 56
16 78 30 160 98 106 89 105 97 -21 111 -96 11 -104 12 -110 6z"/>
<path d="M30825 12174 c-74 -16 -132 -18 -141 -3 -11 18 -66 4 -125 -32 -30
-18 -56 -37 -57 -41 -2 -5 -10 -15 -19 -23 -23 -24 -34 -72 -18 -85 17 -14 69
-106 80 -139 12 -40 37 -58 95 -71 30 -6 71 -16 90 -21 19 -5 46 -11 60 -14
50 -9 141 -36 187 -56 152 -65 209 -104 279 -189 32 -38 61 -70 65 -70 9 0 68
-58 68 -66 0 -15 98 -53 163 -64 40 -7 100 -23 132 -36 33 -13 69 -24 81 -24
12 0 30 -7 41 -15 10 -8 36 -15 56 -15 20 0 40 -4 43 -10 3 -5 24 -10 46 -10
25 0 42 -5 45 -14 3 -8 12 -12 19 -9 8 2 28 -5 44 -16 16 -12 39 -21 50 -21
12 0 30 -9 40 -19 10 -10 33 -22 51 -26 17 -4 34 -13 37 -21 3 -8 16 -14 29
-14 25 0 26 -3 28 -79 1 -13 8 -27 17 -30 9 -3 33 -19 53 -36 61 -48 119 -66
243 -71 106 -4 112 -4 118 16 11 35 -4 76 -42 114 -20 20 -40 36 -45 36 -8 0
-66 37 -78 50 -3 3 -32 23 -65 44 -106 67 -118 78 -223 187 -57 59 -122 120
-145 136 -23 15 -44 30 -47 33 -12 12 -66 47 -82 53 -10 3 -18 13 -18 20 0 8
-13 20 -30 27 -16 7 -30 16 -30 21 0 5 -11 9 -25 9 -16 0 -25 6 -25 15 0 8 -8
15 -18 15 -9 0 -23 9 -30 20 -7 11 -18 20 -26 20 -7 0 -19 7 -26 15 -7 8 -35
28 -64 45 -28 16 -69 45 -90 65 -22 19 -45 35 -52 35 -7 0 -14 4 -16 8 -4 11
-128 88 -155 96 -13 4 -23 12 -23 17 0 5 -4 9 -10 9 -14 0 -124 71 -133 87 -4
7 -14 13 -21 13 -8 0 -16 6 -19 14 -3 7 -19 16 -36 19 -18 4 -31 13 -31 22 0
8 -6 15 -14 15 -8 0 -32 10 -53 22 -42 25 -130 58 -153 57 -8 -1 -42 -7 -75
-15z m1511 -1056 c-3 -7 -9 -21 -12 -30 -7 -21 -13 -22 -34 -7 -12 8 -12 12
-2 16 7 3 18 11 25 19 15 17 31 18 23 2z"/>
<path d="M21305 12042 c-33 -1 -70 -7 -82 -14 l-23 -11 23 -16 c12 -9 30 -22
39 -30 18 -15 110 -43 117 -35 2 2 -2 16 -9 30 -12 21 -12 29 -1 46 17 28 6
33 -64 30z"/>
<path d="M22599 11984 c-18 -34 -6 -48 50 -63 28 -7 69 -21 91 -32 21 -10 43
-19 47 -19 5 0 15 -9 23 -20 8 -12 43 -34 77 -51 35 -17 63 -35 63 -40 0 -6 4
-8 10 -4 17 11 113 -49 134 -84 11 -19 21 -30 23 -24 5 13 43 5 43 -8 0 -5 -4
-9 -10 -9 -11 0 -70 -56 -70 -66 0 -10 257 3 300 15 19 5 80 19 135 31 215 46
215 46 219 216 2 65 -1 127 -6 137 -10 19 -58 23 -87 8 -17 -9 -126 -20 -262
-26 -36 -1 -75 -7 -86 -14 -12 -6 -38 -11 -57 -11 -20 0 -36 -4 -36 -10 0 -5
-6 -10 -14 -10 -20 0 -30 -20 -17 -33 14 -14 103 -10 113 6 5 8 12 6 26 -6 21
-19 49 -22 54 -6 2 7 9 5 17 -5 11 -14 11 -16 -3 -16 -31 0 -16 -19 20 -26 26
-5 39 -3 45 7 5 8 9 10 9 4 0 -29 -25 -39 -127 -52 -24 -3 -43 -9 -43 -14 0
-15 -20 -10 -48 11 -14 11 -28 17 -31 12 -3 -5 -28 -11 -56 -14 -27 -3 -44 -3
-37 -1 26 10 10 23 -28 23 -22 0 -40 -4 -40 -10 0 -5 -7 -10 -15 -10 -11 0
-15 11 -15 40 0 29 4 40 15 40 8 0 15 9 15 20 0 17 7 20 40 20 22 0 40 5 40
11 0 6 -21 9 -52 8 -55 -3 -98 6 -98 21 0 4 -20 11 -45 14 -25 4 -45 11 -45
15 0 5 -21 14 -47 20 -27 7 -61 16 -78 21 -16 5 -56 8 -87 7 -48 -1 -59 -5
-69 -23z"/>
<path d="M18510 11839 c-8 -4 -76 -22 -150 -39 -74 -17 -158 -40 -185 -50 -55
-20 -107 -24 -257 -23 -63 1 -98 -3 -98 -10 0 -11 50 -80 62 -85 12 -6 103
-132 168 -236 35 -55 71 -108 80 -118 17 -19 18 -18 39 8 11 15 21 33 21 40 0
12 8 22 79 104 37 41 80 105 91 135 4 11 21 26 36 34 16 7 36 17 45 21 8 4 55
18 105 30 49 12 91 26 94 30 3 5 26 10 53 13 41 4 47 3 47 -13 0 -11 7 -23 16
-28 11 -6 15 -17 11 -31 -3 -11 -1 -24 4 -27 5 -3 9 -16 9 -30 0 -13 5 -24 10
-24 6 0 10 5 10 12 0 6 10 32 22 57 14 28 23 65 23 94 0 42 -4 51 -39 83 -22
20 -52 38 -66 39 -15 1 -33 6 -41 11 -18 11 -170 13 -189 3z m245 -39 c3 -5
-1 -10 -9 -10 -9 0 -16 5 -16 10 0 6 4 10 9 10 6 0 13 -4 16 -10z"/>
<path d="M23250 11846 c0 -2 7 -6 15 -10 8 -3 15 -1 15 4 0 6 -7 10 -15 10 -8
0 -15 -2 -15 -4z"/>
<path d="M25353 11503 c-23 -20 -47 -63 -83 -150 -27 -68 -50 -129 -50 -136 0
-7 -4 -17 -8 -22 -5 -6 -14 -30 -21 -55 -7 -25 -41 -118 -77 -206 -66 -167
-79 -237 -51 -266 13 -12 17 -21 17 -33 0 -3 21 9 48 27 26 18 54 38 63 43 53
33 141 93 185 126 28 22 54 39 58 39 15 0 83 77 95 107 14 36 12 66 -18 228
-49 264 -69 325 -110 325 -9 0 -31 -12 -48 -27z"/>
<path d="M30060 10933 c0 -5 4 -13 9 -18 13 -15 22 -105 11 -105 -15 0 -12
-57 3 -63 9 -4 9 -7 0 -14 -13 -9 -12 -26 8 -83 26 -75 47 -104 127 -178 45
-42 108 -101 140 -131 51 -48 103 -91 192 -156 35 -26 184 -158 188 -167 2 -3
14 -18 27 -32 13 -14 28 -32 32 -39 4 -8 34 -34 65 -60 60 -48 108 -67 170
-67 20 0 48 -4 62 -10 31 -11 33 -7 6 20 -11 11 -20 28 -20 38 0 10 -14 40
-32 68 -17 27 -44 73 -60 103 -15 30 -35 62 -43 71 -14 15 -85 128 -85 135 0
1 -8 20 -17 41 -21 48 -18 39 -28 103 -8 57 -43 111 -119 186 -23 22 -52 56
-66 75 -49 66 -118 147 -150 173 -32 27 -60 35 -60 17 0 -5 -19 -14 -41 -20
-54 -15 -80 -32 -74 -47 2 -8 -4 -13 -15 -13 -11 0 -20 6 -20 14 0 7 -7 19
-15 26 -12 10 -15 10 -15 -4 0 -19 -11 -21 -28 -4 -8 8 -7 15 8 28 20 17 20
18 -10 30 -16 7 -36 10 -45 7 -13 -6 -39 24 -40 45 -1 18 -65 49 -65 31z"/>
<path d="M37354 9705 c-10 -8 -25 -15 -31 -15 -7 0 -39 -17 -70 -37 -86 -56
-96 -62 -115 -69 -10 -3 -18 -10 -18 -15 0 -6 -8 -13 -17 -16 -23 -8 -217
-144 -221 -155 -2 -4 -10 -8 -18 -8 -8 0 -22 -8 -33 -19 -23 -23 -124 -92
-168 -114 -17 -9 -37 -22 -45 -29 -7 -8 -78 -57 -158 -111 -80 -54 -163 -111
-185 -127 -22 -16 -60 -41 -85 -56 -57 -35 -245 -184 -400 -317 -14 -12 -43
-35 -65 -51 -22 -16 -42 -32 -45 -36 -3 -4 -48 -38 -100 -75 -90 -65 -362
-269 -387 -290 -12 -10 -77 -55 -218 -148 -103 -68 -200 -138 -351 -251 -67
-50 -132 -99 -145 -108 -13 -9 -82 -60 -152 -112 -71 -53 -130 -96 -133 -96
-2 0 -46 -30 -97 -68 -50 -37 -128 -92 -172 -122 -82 -56 -549 -404 -574 -428
-8 -7 -26 -21 -40 -30 -32 -21 -319 -235 -417 -312 -39 -30 -84 -64 -100 -75
-15 -11 -51 -38 -79 -60 -27 -23 -77 -60 -110 -83 -33 -23 -87 -61 -120 -85
-33 -23 -109 -76 -170 -118 -60 -42 -142 -101 -182 -130 -39 -30 -82 -61 -94
-69 -24 -16 -106 -77 -123 -92 -6 -4 -47 -35 -91 -68 -44 -33 -134 -103 -200
-155 -230 -182 -354 -274 -496 -371 -164 -111 -209 -143 -282 -199 -135 -105
-311 -223 -657 -443 -88 -56 -321 -168 -399 -192 -69 -22 -206 -27 -270 -11
-20 6 -70 17 -111 27 -98 21 -190 62 -401 177 -83 46 -204 100 -264 118 -160
50 -215 55 -215 18 0 -11 -7 -22 -15 -25 -8 -4 -15 -16 -15 -28 0 -11 -13 -36
-29 -55 -16 -19 -35 -46 -43 -60 -46 -90 -171 -223 -289 -307 -136 -97 -165
-107 -324 -120 -98 -7 -246 -42 -280 -65 -5 -4 -37 -21 -70 -39 -33 -18 -69
-41 -81 -51 -11 -10 -25 -19 -30 -19 -6 0 -23 -14 -40 -31 -16 -17 -39 -35
-52 -40 -12 -5 -25 -17 -29 -26 -7 -19 -73 -83 -85 -83 -4 0 -10 -10 -14 -22
-4 -15 -1 -25 10 -34 17 -12 47 -4 96 26 8 5 38 21 65 35 93 47 157 84 174 99
10 9 23 16 29 16 7 0 12 5 12 10 0 6 5 10 11 10 6 0 37 16 70 35 53 31 216 90
279 101 28 4 122 32 158 45 38 15 262 31 325 24 78 -8 102 -18 169 -71 31 -24
61 -44 66 -44 14 0 110 -49 135 -69 11 -9 27 -23 36 -31 24 -22 99 -70 110
-70 14 0 124 -59 145 -78 10 -9 21 -16 24 -14 3 2 9 -3 12 -11 15 -43 110 -78
211 -78 72 0 219 29 284 56 77 32 220 107 255 134 19 14 57 41 85 58 71 46 84
55 113 80 15 13 33 23 40 23 6 0 12 3 12 8 0 4 26 23 58 42 31 18 62 39 69 44
29 25 42 35 125 89 48 31 92 57 96 57 12 0 89 42 135 73 20 14 56 28 80 32 23
4 53 14 67 23 14 9 30 17 35 17 29 2 75 18 75 26 0 5 6 9 14 9 20 0 152 101
163 125 5 11 14 19 21 18 11 -3 132 139 132 155 1 19 92 103 148 137 35 22 73
52 85 68 43 57 145 145 197 171 8 4 26 13 39 21 14 8 54 17 90 20 103 9 108
12 143 64 17 28 43 56 57 63 14 7 32 19 39 26 7 6 19 12 26 12 7 0 23 9 36 20
13 11 31 20 42 20 10 0 20 0 23 0 5 0 47 34 77 63 10 10 37 27 58 38 22 12 42
25 45 29 3 5 18 11 34 15 16 3 32 13 35 21 3 9 10 13 15 9 6 -3 15 4 21 15 6
11 16 20 22 20 6 0 20 10 32 23 12 12 37 33 55 47 83 61 154 155 155 205 1 13
9 21 24 23 14 2 22 10 22 23 0 10 4 19 10 19 11 0 60 47 60 58 0 11 61 67 90
82 14 7 38 25 54 39 16 14 51 46 79 71 27 25 62 57 78 73 16 15 33 27 39 27 5
0 10 3 10 8 0 4 16 16 36 27 19 10 46 29 59 41 46 43 90 72 117 79 29 7 65 41
55 52 -4 3 3 11 15 17 12 6 33 31 46 56 14 25 28 47 31 50 9 7 54 70 67 95 6
11 16 19 22 18 7 -2 12 3 12 10 0 16 105 119 113 110 4 -3 7 -1 7 5 0 11 27
33 100 82 12 8 38 31 58 50 21 20 57 48 82 64 25 16 65 46 90 66 25 20 53 40
63 43 9 4 17 11 17 17 0 5 8 10 18 10 9 0 28 9 42 20 14 11 52 40 85 65 103
78 199 156 236 190 9 8 20 15 25 15 5 0 15 9 22 20 7 11 17 20 24 20 10 0 23
10 87 74 16 15 34 25 40 22 7 -5 9 -1 5 8 -4 10 -1 16 9 16 9 0 29 14 45 30
17 17 34 30 38 30 8 0 89 69 162 139 30 28 57 49 61 47 4 -3 13 9 20 25 7 16
17 27 22 23 5 -3 9 2 9 10 0 9 9 16 20 16 10 0 24 9 30 20 6 11 17 20 25 20 7
0 16 9 20 19 3 11 15 23 26 26 12 4 33 18 47 31 15 13 61 46 102 72 41 27 88
61 103 76 15 14 33 26 40 26 7 1 21 13 32 27 32 42 149 151 203 188 12 9 22
22 22 29 0 7 23 28 52 47 98 64 173 110 213 129 84 41 331 173 345 184 8 7 35
23 60 34 96 46 233 161 265 222 7 14 22 34 34 44 11 10 18 22 16 26 -3 4 14
23 38 43 23 19 53 45 68 58 36 34 101 82 194 142 115 76 142 96 199 152 28 28
73 68 100 90 50 40 65 55 120 114 27 28 28 31 10 31 -11 0 -29 -7 -40 -15z"/>
<path d="M0 8462 c0 -48 12 -72 37 -72 7 0 13 6 13 14 0 16 -39 106 -45 106
-3 0 -5 -22 -5 -48z"/>
<path d="M19819 6494 c-15 -5 -15 -10 -3 -51 8 -26 16 -49 19 -52 3 -3 25 -4
48 -3 23 1 78 -2 122 -7 44 -6 114 -12 155 -15 102 -7 169 -30 216 -76 40 -38
133 -98 217 -140 26 -13 47 -27 47 -32 0 -4 6 -8 13 -8 6 -1 37 -16 67 -35 71
-45 88 -52 190 -82 47 -13 89 -29 95 -34 5 -5 19 -9 31 -9 13 0 25 -4 29 -9 3
-5 20 -13 38 -16 17 -4 45 -14 61 -22 20 -10 81 -18 185 -24 224 -12 306 -27
316 -58 5 -18 45 -40 140 -81 74 -32 227 -67 341 -79 118 -12 125 -15 142 -42
12 -18 11 -21 -7 -26 -12 -3 -21 -14 -21 -24 0 -10 -4 -21 -10 -24 -5 -3 -10
-2 -10 3 0 15 -43 1 -63 -20 -12 -12 -26 -17 -38 -13 -11 4 -26 1 -34 -5 -8
-6 -18 -9 -24 -6 -5 4 -21 1 -35 -5 -51 -23 -30 -39 89 -67 50 -11 122 -23
160 -26 39 -4 86 -8 105 -11 155 -21 228 -28 315 -31 55 -2 168 -6 250 -10
150 -6 235 3 235 27 0 6 -16 25 -36 42 -33 30 -35 34 -29 78 6 45 5 47 -32 77
-64 50 -89 164 -47 212 7 8 15 27 19 41 4 16 24 37 51 54 51 33 50 34 -48 66
-73 23 -145 21 -171 -6 -8 -7 -31 -17 -51 -21 -25 -4 -41 -14 -46 -28 -8 -19
-9 -19 -9 7 -1 15 -5 27 -11 27 -5 0 -10 7 -10 15 0 17 -21 29 -81 48 -98 31
-467 95 -619 107 -63 5 -169 19 -235 30 -66 12 -147 25 -180 30 -33 5 -121 19
-195 30 -74 12 -183 27 -241 35 -58 8 -114 17 -123 21 -17 6 -90 -11 -111 -27
-12 -9 -78 -5 -120 6 -31 9 -43 18 -61 50 -30 55 -290 131 -494 145 -58 4
-145 17 -195 28 -144 33 -279 53 -306 46z"/>
<path d="M23161 6106 c-8 -9 -11 -19 -7 -23 9 -9 29 13 24 27 -2 8 -8 7 -17
-4z"/>
<path d="M8160 5738 c0 -22 29 -57 61 -73 27 -15 29 -14 29 3 0 11 -11 30 -23
44 -29 31 -67 46 -67 26z"/>
<path d="M6766 5391 c-4 -7 -5 -15 -2 -18 9 -9 19 4 14 18 -4 11 -6 11 -12 0z"/>
<path d="M8521 5384 c0 -11 3 -14 6 -6 3 7 2 16 -1 19 -3 4 -6 -2 -5 -13z"/>
<path d="M8551 5334 c0 -11 3 -14 6 -6 3 7 2 16 -1 19 -3 4 -6 -2 -5 -13z"/>
<path d="M6545 5220 c-3 -5 -1 -10 4 -10 6 0 11 5 11 10 0 6 -2 10 -4 10 -3 0
-8 -4 -11 -10z"/>
<path d="M6430 5140 c0 -5 12 -10 26 -10 14 0 23 4 19 10 -3 6 -15 10 -26 10
-10 0 -19 -4 -19 -10z"/>
<path d="M27830 5097 c0 -24 31 -57 55 -57 13 0 28 -6 32 -13 4 -7 23 -19 41
-27 19 -7 47 -26 63 -43 17 -17 36 -27 44 -23 10 4 15 -1 15 -14 0 -11 4 -20
9 -20 5 0 23 -14 40 -31 17 -17 31 -28 31 -24 0 3 10 -1 22 -9 12 -9 32 -16
43 -16 15 0 17 -2 7 -9 -10 -6 -2 -11 25 -16 21 -4 43 -10 48 -15 20 -15 94
-19 105 -5 8 10 -2 20 -47 45 -118 66 -331 170 -347 170 -9 0 -16 4 -16 9 0 5
-20 19 -45 31 -25 12 -45 26 -45 30 0 8 -62 50 -74 50 -3 0 -6 -6 -6 -13z"/>
<path d="M25549 4746 c-8 -8 -393 -17 -943 -22 -308 -3 -566 -9 -574 -13 -29
-16 131 -30 275 -24 126 5 143 4 149 -11 4 -11 18 -16 41 -16 23 0 42 -7 52
-19 19 -21 91 -40 91 -23 0 6 36 10 86 11 69 0 85 -2 81 -14 -8 -19 14 -25 89
-25 36 0 64 -4 64 -10 0 -5 6 -10 13 -10 7 0 17 -10 22 -22 7 -16 22 -25 50
-29 21 -4 41 -12 43 -18 2 -7 37 -11 99 -11 80 0 94 -2 89 -15 -4 -11 2 -15
20 -15 13 0 27 6 30 13 4 10 36 13 139 11 127 -2 135 -1 135 17 0 15 7 19 38
19 36 0 38 2 55 53 10 28 19 59 20 67 1 8 13 20 27 27 22 10 23 12 8 18 -25
10 -23 29 2 22 10 -3 25 2 32 10 7 9 23 13 40 11 18 -3 27 0 25 6 -2 6 -18 12
-36 14 -22 2 -31 0 -26 -7 3 -6 -1 -11 -9 -11 -9 0 -16 5 -16 10 0 9 -201 15
-211 6z"/>
<path d="M4450 4086 c0 -2 7 -9 15 -16 12 -10 15 -10 15 4 0 9 -7 16 -15 16
-8 0 -15 -2 -15 -4z"/>
<path d="M26360 3678 c-268 -55 -300 -65 -399 -120 -75 -42 -175 -108 -179
-119 -2 -5 -9 -9 -15 -9 -7 0 -32 -18 -56 -40 -24 -22 -45 -40 -47 -40 -2 0
-34 -23 -71 -51 -37 -28 -110 -76 -161 -107 -52 -32 -115 -70 -140 -86 -26
-16 -92 -52 -147 -80 -140 -73 -219 -118 -223 -128 -2 -4 -8 -8 -14 -8 -6 0
-25 -10 -42 -23 -52 -38 -169 -104 -208 -116 -21 -7 -38 -16 -38 -21 0 -4 -6
-7 -12 -7 -13 1 -90 -31 -140 -58 -63 -34 -87 -46 -173 -86 -49 -23 -103 -48
-120 -57 -16 -9 -37 -19 -45 -23 -67 -31 -129 -66 -150 -82 l-25 -19 25 7 c27
7 77 29 177 76 35 16 67 29 73 29 5 0 10 5 10 10 0 6 6 10 13 10 8 0 36 12 63
26 27 14 84 38 126 54 42 16 94 40 115 53 50 31 165 87 179 87 7 0 14 7 18 15
3 8 12 15 20 15 9 0 32 9 53 19 49 25 130 61 137 61 5 0 85 36 206 92 43 20
62 28 142 62 20 9 41 16 48 16 7 0 25 11 42 25 16 14 36 25 45 25 8 0 27 6 41
14 15 7 38 18 52 24 14 5 54 22 89 36 35 15 80 30 100 35 20 5 74 23 121 41
105 38 273 66 454 74 64 3 92 9 131 30 64 34 133 63 170 72 17 4 32 10 35 13
5 6 30 16 155 62 44 16 89 34 100 41 11 6 46 25 79 40 34 17 60 37 63 48 3 11
12 20 20 20 13 0 63 43 63 55 0 11 -52 4 -81 -10 -24 -13 -43 -14 -115 -5
-116 14 -507 20 -564 8z"/>
<path d="M2091 2871 c-24 -15 24 -35 50 -20 17 9 19 13 8 20 -8 5 -21 9 -29 9
-8 0 -21 -4 -29 -9z"/>
<path d="M2160 2831 c0 -8 -8 -10 -20 -6 -11 3 -29 3 -40 0 -16 -5 -20 -15
-20 -56 l0 -50 43 3 c41 3 42 4 45 43 2 22 8 42 13 46 6 3 3 11 -6 19 -11 9
-15 9 -15 1z"/>
<path d="M4260 2605 c0 -8 5 -15 10 -15 6 0 10 7 10 15 0 8 -4 15 -10 15 -5 0
-10 -7 -10 -15z"/>
<path d="M4203 2593 c-22 -8 -14 -23 12 -23 16 0 25 6 25 15 0 15 -14 18 -37
8z"/>
<path d="M4125 2557 l-30 -26 33 -11 c17 -7 32 -16 32 -21 0 -5 9 -9 19 -9 11
0 23 -4 26 -10 3 -5 17 -10 31 -10 20 0 24 5 24 31 0 40 -20 59 -63 59 -20 0
-37 5 -39 11 -2 7 -16 1 -33 -14z m35 -17 c0 -5 -4 -10 -10 -10 -5 0 -10 5
-10 10 0 6 5 10 10 10 6 0 10 -4 10 -10z"/>
<path d="M37435 2444 c-38 -24 -77 -47 -85 -51 -8 -3 -41 -24 -72 -45 -31 -21
-59 -38 -62 -38 -6 0 -110 -60 -262 -151 -45 -27 -87 -49 -93 -49 -6 0 -11 -4
-11 -10 0 -5 -4 -10 -9 -10 -6 0 -29 -13 -53 -28 -24 -16 -58 -35 -75 -43 -18
-8 -33 -17 -33 -21 0 -5 -4 -8 -9 -8 -7 0 -96 -50 -161 -90 -8 -5 -87 -51
-175 -101 -88 -50 -179 -105 -203 -120 -24 -16 -45 -29 -48 -29 -2 0 -33 -17
-67 -38 -125 -77 -168 -102 -176 -102 -4 0 -25 -13 -47 -30 -21 -16 -42 -30
-47 -30 -6 0 -97 -53 -387 -225 -58 -34 -121 -70 -140 -80 -19 -10 -37 -21
-40 -24 -5 -7 -50 -34 -130 -79 -25 -14 -92 -53 -150 -88 -58 -34 -124 -73
-147 -86 -24 -12 -100 -57 -170 -98 -163 -95 -148 -87 -245 -145 -99 -60 -154
-91 -188 -108 -14 -6 -27 -14 -30 -17 -7 -8 -74 -46 -185 -105 -49 -27 -92
-51 -95 -54 -3 -3 -27 -17 -55 -31 -27 -14 -77 -41 -110 -61 -94 -55 -342
-189 -352 -189 -4 0 -21 -7 -38 -16 -16 -8 -52 -22 -80 -29 -43 -12 159 -14
1388 -14 790 -1 1437 1 1437 3 0 3 -6 11 -13 18 -6 7 -27 42 -46 78 -18 36
-36 67 -40 70 -19 14 -47 102 -58 182 -9 64 23 145 89 226 32 41 74 84 91 96
49 33 218 136 223 136 3 0 20 11 37 24 18 13 64 41 102 61 39 21 81 47 95 57
54 41 380 243 469 291 29 15 59 33 65 38 22 18 112 76 156 101 86 48 116 66
200 122 47 31 91 56 97 56 10 0 13 99 13 465 0 256 -1 465 -2 464 -2 0 -34
-21 -73 -45z"/>
<path d="M23855 2369 c-27 -11 -63 -26 -80 -34 -52 -24 -136 -56 -265 -101
-69 -24 -134 -48 -145 -54 -11 -5 -76 -30 -145 -54 -69 -25 -170 -63 -225 -86
-55 -22 -149 -57 -210 -76 -150 -49 -299 -101 -495 -175 -91 -34 -194 -72
-230 -84 -36 -12 -94 -34 -130 -48 -148 -59 -559 -210 -682 -251 -155 -52
-370 -131 -413 -152 -16 -7 -68 -25 -114 -39 -47 -14 -95 -32 -109 -41 -13 -9
-33 -14 -43 -11 -11 3 -26 -1 -33 -9 -8 -8 -22 -14 -30 -14 -9 0 -16 -5 -16
-11 0 -5 -4 -7 -10 -4 -12 7 -92 -15 -101 -28 -4 -6 -25 -7 -47 -3 -27 4 -42
2 -44 -6 -3 -8 -23 -11 -54 -10 -27 1 -71 -5 -99 -12 -27 -8 -44 -15 -37 -15
6 -1 12 -7 12 -14 0 -7 10 -13 23 -12 12 0 22 -4 22 -10 0 -5 -10 -10 -23 -10
-25 -1 -43 -21 -35 -41 5 -14 -35 -54 -55 -54 -8 0 -29 -8 -46 -19 -17 -10
-50 -21 -73 -25 -34 -5 -44 -3 -52 11 -8 16 -14 16 -58 5 -26 -7 -55 -20 -64
-28 -8 -8 -20 -14 -25 -14 -5 0 -14 -8 -21 -18 -6 -11 -33 -24 -60 -31 -97
-24 -158 -46 -177 -65 -13 -13 -20 -15 -26 -6 -5 8 -9 6 -12 -8 -5 -17 -15
-20 -77 -21 -67 -1 -71 0 -72 21 -1 17 -3 18 -6 6 -7 -26 -38 -31 -75 -12
l-32 17 28 22 c26 21 32 22 59 10 25 -10 36 -10 64 1 57 24 71 42 67 86 -4 47
19 88 50 88 23 0 115 41 116 51 0 11 -38 17 -140 24 -109 8 -161 31 -207 93
-67 89 -103 98 -205 49 -40 -19 -100 -47 -133 -62 -50 -22 -144 -69 -215 -106
-8 -4 -40 -19 -70 -32 -30 -14 -86 -39 -125 -58 -38 -18 -117 -53 -175 -78
-58 -26 -130 -61 -160 -78 -30 -17 -95 -50 -145 -73 -49 -23 -148 -70 -220
-105 -71 -34 -141 -68 -155 -74 -14 -6 -32 -15 -40 -20 -25 -15 -270 -131
-276 -131 -4 0 -58 -25 -122 -56 -63 -30 -135 -64 -161 -74 -25 -10 -93 -42
-151 -71 -58 -29 -148 -70 -200 -91 l-95 -38 165 3 c156 2 166 3 187 24 12 12
33 25 46 28 14 4 34 19 46 35 25 35 80 52 158 49 50 -2 59 0 79 24 13 15 27
27 32 27 4 0 28 12 53 28 24 15 71 36 104 46 33 10 65 22 72 28 6 5 33 8 60 6
61 -3 157 29 263 88 14 7 33 14 43 14 11 0 15 4 11 11 -5 9 1 10 20 5 16 -4
26 -2 26 4 0 7 8 9 21 5 14 -5 28 0 44 15 21 20 24 20 33 4 13 -24 111 -36
174 -22 26 6 48 15 48 20 0 10 41 10 58 -1 9 -5 -3 -15 -39 -29 -28 -12 -58
-22 -66 -22 -9 0 -13 -6 -10 -14 4 -10 -3 -17 -22 -21 -15 -3 -45 -21 -67 -41
-59 -53 -94 -77 -94 -65 0 7 -14 9 -40 5 -37 -6 -40 -5 -40 18 0 13 4 28 9 34
6 5 5 15 -3 26 -11 15 -15 15 -41 -8 -15 -13 -36 -24 -46 -24 -17 0 -32 -15
-35 -35 0 -5 -2 -16 -2 -22 -1 -7 -11 -13 -22 -13 -36 0 -25 -44 15 -63 50
-24 111 -21 182 7 50 21 74 25 144 23 70 -2 84 -5 87 -20 4 -19 47 -24 58 -6
4 7 34 9 94 4 84 -7 88 -6 104 16 9 13 16 19 16 14 0 -6 5 -2 11 8 14 24 107
24 135 -1 26 -23 70 -42 99 -42 14 0 25 -4 25 -10 0 -12 37 -13 44 -1 7 11 98
41 124 41 11 0 36 11 56 25 20 14 41 25 45 25 5 0 6 11 3 25 -2 15 0 25 7 25
6 0 11 9 11 20 0 29 38 49 86 45 34 -4 47 1 68 20 15 14 32 25 39 25 7 0 31 7
54 15 23 8 55 12 71 9 21 -4 41 2 77 25 27 17 55 31 62 31 7 0 13 3 13 8 0 4
30 15 68 26 37 10 76 22 87 27 43 18 203 78 260 97 33 11 77 29 98 41 21 11
43 21 50 21 7 0 18 5 25 12 7 7 22 13 35 13 15 0 22 6 21 18 -1 11 5 17 21 17
12 0 34 9 48 20 14 11 30 20 35 20 5 0 12 7 16 15 3 8 12 15 21 15 9 0 26 9
38 21 33 32 59 38 84 22 14 -10 27 -11 40 -5 54 27 92 41 123 47 19 3 44 10
55 14 102 42 143 54 229 66 46 6 147 35 191 54 11 5 99 47 195 94 96 47 216
99 265 115 139 47 174 61 203 80 32 21 63 33 212 83 174 58 248 85 320 114 96
39 224 98 230 106 3 3 20 10 38 14 17 3 32 10 32 14 0 4 6 8 13 8 8 0 52 22
98 50 46 28 124 65 172 83 49 18 130 58 180 88 51 30 115 63 142 74 28 11 57
25 65 32 8 8 41 23 72 34 31 12 74 30 95 42 21 11 45 20 53 20 8 0 40 15 71
34 31 19 67 37 80 41 12 4 44 21 70 36 25 16 50 29 56 29 5 0 36 16 69 36 32
19 59 34 59 33 0 -6 84 51 90 61 10 16 -25 11 -80 -11z m-3505 -1304 c-43 -16
-84 -19 -75 -5 4 6 15 8 25 5 10 -3 21 -1 25 5 3 5 18 10 33 9 26 0 25 -1 -8
-14z m-1304 -297 c8 -7 21 -19 29 -25 7 -7 21 -13 29 -13 9 0 16 -4 16 -9 0
-5 3 -24 6 -42 3 -21 2 -29 -3 -22 -6 9 -19 3 -48 -22 -45 -41 -101 -50 -92
-15 3 11 0 23 -6 28 -15 9 -42 60 -36 67 7 6 84 64 87 64 2 1 10 -5 18 -11z
m-221 -116 c27 -9 26 -36 -2 -40 -13 -2 -23 -9 -23 -17 0 -7 -6 -16 -12 -19
-7 -3 1 -3 17 0 l30 5 -30 -17 c-16 -9 -37 -22 -45 -29 -19 -16 -82 -27 -104
-19 -20 8 -21 43 -1 50 8 4 15 14 15 24 0 19 16 36 40 42 8 2 21 9 28 16 14
13 53 14 87 4z m-332 -115 c15 -11 16 -14 3 -33 -11 -15 -22 -20 -45 -16 l-31
4 21 29 c23 33 28 34 52 16z m408 -237 c10 0 19 -4 19 -10 0 -5 -11 -10 -25
-10 -19 0 -25 5 -24 23 0 12 3 16 6 10 2 -7 13 -13 24 -13z"/>
<path d="M3074 2216 c-3 -8 -1 -23 5 -35 16 -29 14 -50 -3 -28 -7 9 -21 17
-30 17 -20 0 -20 -7 0 -27 9 -9 14 -26 11 -40 -2 -13 0 -26 4 -29 5 -3 9 -14
9 -25 0 -15 7 -19 34 -19 22 0 38 -7 47 -20 18 -26 59 -18 52 11 -4 15 0 19
21 19 l26 0 -6 73 c-4 39 -10 76 -15 81 -4 5 -31 11 -58 14 -28 2 -51 8 -51
13 0 15 -40 10 -46 -5z"/>
<path d="M18573 1833 c-20 -8 -15 -23 7 -23 11 0 20 7 20 15 0 15 -6 17 -27 8z"/>
<path d="M9196 1394 c-11 -7 -17 -17 -13 -20 3 -4 14 1 23 10 21 22 15 28 -10
10z"/>
<path d="M9425 1300 c-3 -5 -1 -10 4 -10 6 0 11 5 11 10 0 6 -2 10 -4 10 -3 0
-8 -4 -11 -10z"/>
<path d="M9434 1105 c-1 -16 1 -24 4 -17 3 10 8 9 23 -4 18 -16 19 -15 29 10
5 15 10 29 10 31 0 1 -15 5 -32 7 -31 3 -33 1 -34 -27z"/>
<path d="M8711 1013 c-1 -34 -5 -43 -19 -43 -13 0 -23 -15 -36 -52 -30 -87
-40 -108 -53 -108 -7 0 -13 -7 -13 -15 0 -9 -7 -29 -15 -45 -13 -25 -22 -30
-53 -30 -21 0 -47 -7 -58 -15 -12 -8 -24 -11 -28 -8 -3 3 -6 1 -6 -5 0 -7 -6
-12 -14 -12 -10 0 -16 -13 -18 -37 -2 -26 -7 -37 -17 -35 -8 2 -11 -3 -8 -12
7 -19 -11 -86 -23 -86 -6 0 -10 5 -10 11 0 5 -5 7 -10 4 -6 -4 -8 -11 -4 -16
3 -5 0 -8 -8 -7 -8 2 -12 -4 -10 -16 4 -21 -19 -41 -29 -24 -4 7 -13 7 -23 1
-14 -8 -10 -13 24 -32 33 -19 40 -20 40 -7 0 9 5 17 10 17 20 3 25 4 38 12 6
5 17 5 24 1 6 -4 8 -3 4 4 -3 6 8 21 26 34 18 12 57 47 86 76 44 45 52 60 52
91 0 23 7 45 20 59 11 12 20 28 20 37 0 8 4 15 9 15 5 0 11 9 14 20 4 15 14
20 37 20 37 0 54 14 64 53 6 26 38 38 49 20 2 -5 2 -2 0 5 -1 8 -3 29 -3 48 0
24 -8 43 -24 59 -14 13 -26 32 -29 42 -3 10 -5 -1 -6 -24z m-211 -367 c0 -3
-4 -8 -10 -11 -5 -3 -10 -1 -10 4 0 6 5 11 10 11 6 0 10 -2 10 -4z"/>
<path d="M9477 1025 c-10 -14 -23 -25 -30 -25 -14 0 -39 -57 -29 -64 14 -9 62
7 62 20 0 8 9 14 20 14 11 0 20 -4 20 -10 0 -5 6 -10 13 -10 15 0 57 36 57 50
0 18 -33 41 -51 35 -11 -4 -19 -2 -19 4 0 19 -25 11 -43 -14z"/>
<path d="M11310 1010 c0 -29 4 -40 15 -40 11 0 15 11 15 40 0 29 -4 40 -15 40
-11 0 -15 -11 -15 -40z"/>
<path d="M19615 990 c-13 -6 -15 -9 -5 -9 13 -1 13 -2 0 -11 -24 -15 -5 -21
30 -8 26 9 35 9 38 0 2 -7 8 -12 13 -12 5 0 3 11 -3 25 -12 26 -36 31 -73 15z"/>
<path d="M9480 910 c0 -19 7 -33 19 -40 27 -14 41 -13 41 5 0 8 -4 15 -10 15
-5 0 -10 5 -10 10 0 6 19 10 43 11 l42 0 -50 14 c-71 20 -75 19 -75 -15z"/>
<path d="M9593 893 c-17 -6 -16 -30 1 -36 8 -3 18 5 25 19 11 25 4 30 -26 17z"/>
<path d="M9540 825 c0 -8 9 -15 20 -15 11 0 20 7 20 15 0 8 -9 15 -20 15 -11
0 -20 -7 -20 -15z"/>
<path d="M9746 831 c-4 -7 -5 -15 -2 -18 9 -9 19 4 14 18 -4 11 -6 11 -12 0z"/>
<path d="M9511 804 c0 -11 3 -14 6 -6 3 7 2 16 -1 19 -3 4 -6 -2 -5 -13z"/>
<path d="M9680 789 c0 -33 10 -37 33 -11 22 25 21 29 -8 34 -22 5 -25 2 -25
-23z"/>
<path d="M9594 753 c0 -32 2 -49 6 -38 6 17 8 15 14 -10 6 -22 9 -26 17 -14
13 21 11 39 -6 39 -11 0 -15 11 -15 40 0 22 -3 40 -7 40 -5 0 -8 -26 -9 -57z"/>
<path d="M11395 800 c3 -5 15 -10 26 -10 10 0 19 5 19 10 0 6 -12 10 -26 10
-14 0 -23 -4 -19 -10z"/>
<path d="M8640 779 c0 -5 5 -7 10 -4 6 3 10 8 10 11 0 2 -4 4 -10 4 -5 0 -10
-5 -10 -11z"/>
<path d="M9787 754 c-13 -13 -7 -24 14 -24 11 0 19 5 17 12 -5 14 -22 21 -31
12z"/>
<path d="M10033 743 c-18 -2 -33 -9 -33 -15 0 -6 -7 -20 -17 -30 -14 -16 -15
-21 -2 -44 l14 -26 12 28 c7 16 10 39 8 52 -4 14 -1 22 8 22 8 0 13 -10 13
-22 -1 -17 5 -23 19 -23 15 0 21 8 23 33 2 17 0 31 -5 30 -4 0 -23 -3 -40 -5z"/>
<path d="M9714 685 c-30 -34 -31 -35 -8 -35 12 0 28 -2 36 -5 7 -3 20 -1 28 5
12 7 12 12 2 22 -6 6 -12 20 -12 30 0 26 -11 22 -46 -17z"/>
<path d="M9849 611 l-23 -18 23 -8 c28 -9 81 22 60 36 -21 13 -34 11 -60 -10z"/>
<path d="M9825 560 c3 -5 12 -10 20 -10 8 0 17 5 20 10 4 6 -5 10 -20 10 -15
0 -24 -4 -20 -10z"/>
<path d="M8680 489 c-30 -17 -58 -35 -61 -41 -4 -7 -12 -3 -20 11 -8 11 -19
21 -25 21 -17 0 -27 -31 -14 -44 18 -18 12 -39 -11 -33 -30 8 -129 -42 -129
-65 0 -14 -8 -18 -41 -18 -72 0 -124 -46 -117 -105 2 -25 10 -31 48 -43 40
-12 50 -12 82 1 44 18 77 62 59 80 -13 13 -15 27 -3 27 5 0 14 -11 20 -25 12
-26 36 -33 47 -15 4 6 -3 26 -14 46 -17 29 -19 38 -8 54 14 23 32 26 46 8 6
-7 23 -28 39 -47 l29 -34 54 28 c82 44 81 42 53 82 -27 41 -30 53 -11 53 18 0
47 -33 47 -53 0 -29 33 -38 67 -17 53 32 52 80 -1 100 -13 4 -21 16 -21 31 0
36 -47 35 -115 -2z m-330 -219 c-8 -5 -19 -10 -25 -10 -5 0 -3 5 5 10 8 5 20
10 25 10 6 0 3 -5 -5 -10z m50 -38 c0 -12 -51 -34 -59 -27 -7 8 28 35 46 35 7
0 13 -4 13 -8z"/>
<path d="M8184 415 c11 -8 16 -21 13 -30 -8 -19 -37 -20 -37 0 0 17 -9 19 -30
5 -13 -9 -13 -11 0 -20 8 -5 23 -10 32 -10 9 0 20 -9 23 -20 6 -17 8 -18 21
-6 8 8 14 19 14 25 0 6 5 11 12 11 6 0 -1 14 -17 30 -16 17 -34 30 -39 30 -6
0 -3 -7 8 -15z"/>
<path d="M8240 422 c0 -18 40 -36 53 -23 8 8 5 11 -9 11 -11 0 -25 5 -32 12
-9 9 -12 9 -12 0z"/>
<path d="M17938 403 c7 -3 16 -2 19 1 4 3 -2 6 -13 5 -11 0 -14 -3 -6 -6z"/>
<path d="M8090 343 c-34 -6 -50 -21 -43 -39 3 -8 1 -14 -5 -12 -6 2 -18 -6
-26 -17 l-15 -20 -1 20 c-1 19 -1 19 -14 2 -8 -10 -20 -15 -30 -11 -11 4 -16
1 -16 -11 0 -11 -5 -15 -14 -12 -15 6 -26 -12 -26 -44 0 -17 6 -20 38 -17 25
2 37 8 37 18 0 8 10 16 23 18 26 4 30 22 5 23 -15 0 -15 2 2 8 11 5 22 4 23 0
5 -13 40 -11 48 3 4 7 3 8 -4 4 -7 -4 -12 -1 -12 7 0 9 14 17 36 22 24 4 38
13 41 26 5 19 6 19 20 2 14 -17 14 -17 9 0 -3 10 -6 23 -6 28 0 9 -25 10 -70
2z"/>
<path d="M9474 281 c-44 -17 -66 -36 -77 -64 -6 -15 -16 -18 -50 -16 -32 2
-52 -3 -74 -19 -17 -12 -36 -22 -42 -22 -6 0 -11 -4 -11 -10 0 -5 -7 -10 -15
-10 -8 0 -15 9 -15 19 0 26 -22 32 -62 18 -40 -14 -47 -23 -41 -48 4 -13 -5
-24 -30 -39 -19 -12 -38 -27 -41 -35 -3 -8 -15 -15 -27 -15 -11 0 -35 -6 -52
-14 -18 -8 -43 -17 -57 -19 -14 -2 20 -5 75 -5 87 0 101 2 113 19 17 25 28 24
35 -2 6 -21 10 -21 112 -17 87 4 108 8 119 23 11 15 10 21 -3 36 -37 41 -40
46 -29 57 16 16 61 -54 54 -84 -6 -21 -5 -22 27 -11 17 7 38 18 45 25 18 16
32 15 32 -2 0 -23 35 -25 81 -4 49 22 89 62 89 88 0 24 -58 132 -82 153 -23
20 -21 20 -74 -2z m25 -90 c16 -16 17 -22 7 -31 -27 -21 -64 19 -39 43 9 10
11 9 32 -12z"/>
<path d="M8205 250 c-3 -5 -7 -24 -7 -40 -1 -34 -14 -38 -58 -15 -27 14 -33
14 -60 0 -35 -18 -37 -33 -10 -68 24 -30 18 -53 -18 -62 -20 -5 -30 -1 -44 17
-10 13 -18 28 -18 34 0 6 -6 17 -14 23 -10 9 -16 8 -26 -4 -14 -17 -10 -24 44
-83 35 -37 49 -39 94 -12 26 16 32 26 32 56 0 19 -5 44 -10 55 -15 27 11 26
36 -2 24 -27 72 -52 84 -44 16 10 12 131 -4 144 -10 8 -16 9 -21 1z"/>
<path d="M7854 205 c-5 -13 -9 -14 -15 -4 -6 11 -9 10 -14 -4 -4 -9 0 -23 8
-32 17 -17 63 -20 72 -5 3 6 -1 10 -9 10 -10 0 -15 8 -13 21 3 26 -20 37 -29
14z"/>
<path d="M7170 180 c-8 -5 -24 -10 -36 -10 -11 0 -30 -9 -42 -20 -12 -11 -29
-20 -38 -20 -8 0 -27 -9 -40 -19 -13 -10 -48 -25 -77 -31 -28 -7 -54 -16 -57
-19 -3 -3 -21 -13 -41 -22 -26 -13 -40 -14 -54 -6 -46 25 -205 7 -205 -23 0
-15 985 -13 1012 1 15 8 19 8 14 0 -5 -7 8 -11 39 -11 32 0 44 3 39 12 -4 6 0
16 8 22 8 6 20 21 27 34 6 12 18 22 26 22 8 0 15 4 15 9 0 5 18 12 40 16 41 7
50 21 28 43 -18 18 -35 15 -41 -8 -7 -27 -25 -25 -30 3 -3 21 -4 21 -12 2 -11
-26 -25 -35 -54 -35 -14 0 -32 -7 -42 -16 -26 -23 -101 -30 -120 -11 -11 10
-20 12 -32 5 -11 -5 -24 -5 -36 1 -14 8 -21 7 -24 -2 -3 -8 -14 -3 -31 15 -14
15 -45 32 -69 38 -23 6 -63 17 -89 25 -55 18 -58 18 -78 5z"/>
<path d="M12960 160 c0 -5 5 -10 10 -10 6 0 10 5 10 10 0 6 -4 10 -10 10 -5 0
-10 -4 -10 -10z"/>
<path d="M5054 132 c-13 -8 -17 -28 -15 -89 l1 -43 110 0 c109 0 110 0 100 21
-6 11 -19 23 -28 26 -9 3 -25 13 -35 21 -13 12 -15 17 -5 24 9 5 7 8 -7 8 -11
0 -38 9 -60 20 -46 22 -46 22 -61 12z"/>
<path d="M12990 100 c0 -5 7 -10 16 -10 8 0 12 5 9 10 -3 6 -10 10 -16 10 -5
0 -9 -4 -9 -10z"/>
<path d="M7819 72 c-15 -15 -30 -37 -34 -49 -5 -20 -3 -23 21 -23 15 0 24 3
21 6 -11 11 13 45 39 54 45 17 86 -26 47 -49 -15 -9 -13 -10 13 -11 52 0 62
60 14 85 -45 23 -91 18 -121 -13z"/>
</g>
</svg>
